<?xml version="1.0" standalone="no"?>
<!DOCTYPE svg PUBLIC "-//W3C//DTD SVG 20010904//EN"
 "http://www.w3.org/TR/2001/REC-SVG-20010904/DTD/svg10.dtd">
<svg version="1.0" xmlns="http://www.w3.org/2000/svg"
 width="2000.000000pt" height="1117.000000pt" viewBox="0 0 2000.000000 1117.000000"
 preserveAspectRatio="xMidYMid meet">

<g transform="translate(0.000000,1117.000000) scale(0.100000,-0.100000)"
fill="#000000" stroke="none">
<path d="M16092 10099 c-49 -49 -60 -64 -51 -75 9 -11 8 -18 -1 -29 -9 -11 -9
-15 -1 -15 6 0 14 6 17 14 3 8 19 20 35 26 52 22 42 3 -16 -30 -63 -36 -68
-49 -10 -24 39 16 118 87 108 97 -3 3 -16 2 -30 -4 -36 -13 -39 -11 -16 14 16
17 40 87 30 87 -1 0 -30 -28 -65 -61z m8 -53 c0 -2 -7 -7 -16 -10 -8 -3 -12
-2 -9 4 6 10 25 14 25 6z"/>
<path d="M15786 10107 c3 -10 9 -15 12 -12 3 3 0 11 -7 18 -10 9 -11 8 -5 -6z"/>
<path d="M15630 10056 c0 -3 9 -10 20 -16 11 -6 20 -8 20 -6 0 3 -9 10 -20 16
-11 6 -20 8 -20 6z"/>
<path d="M15778 10015 c-58 -39 -78 -141 -32 -159 14 -5 15 -4 4 9 -14 17 -9
100 9 118 7 7 9 2 5 -19 l-4 -29 20 32 c19 28 63 53 95 53 7 0 24 -11 38 -24
40 -37 25 -82 -37 -112 l-31 -14 25 17 c13 10 33 27 44 37 19 19 19 20 -8 43
-36 30 -71 29 -101 -3 -30 -33 -32 -60 -4 -74 11 -7 18 -14 16 -17 -3 -2 -15
0 -26 6 -17 9 -20 9 -15 -3 9 -22 32 -27 77 -15 44 12 97 58 97 84 0 25 -28
73 -49 85 -34 17 -84 11 -123 -15z"/>
<path d="M16134 9988 c-22 -24 -59 -68 -83 -98 l-43 -55 47 50 c26 28 68 71
92 98 25 26 41 47 36 47 -5 0 -27 -19 -49 -42z"/>
<path d="M15560 9966 c0 -2 8 -10 18 -17 15 -13 16 -12 3 4 -13 16 -21 21 -21
13z"/>
<path d="M15540 9920 c8 -6 23 -15 33 -21 16 -9 17 -8 5 10 -7 12 -22 21 -33
21 -17 0 -18 -2 -5 -10z"/>
<path d="M15518 9873 c7 -3 16 -2 19 1 4 3 -2 6 -13 5 -11 0 -14 -3 -6 -6z"/>
<path d="M15558 9863 c7 -3 16 -2 19 1 4 3 -2 6 -13 5 -11 0 -14 -3 -6 -6z"/>
<path d="M16004 9802 c32 -35 52 -127 24 -117 -8 3 -25 -6 -38 -20 -13 -14
-32 -25 -42 -25 -10 0 -18 -6 -18 -14 0 -11 -12 -14 -47 -12 -27 2 -63 -2 -80
-10 -42 -17 -44 -1 -8 56 27 43 31 55 15 45 -6 -4 -22 -27 -36 -53 -20 -39
-24 -42 -19 -17 l7 30 -25 -23 c-33 -32 -63 -26 -59 11 l3 28 -42 -31 c-26
-19 -45 -26 -49 -20 -4 7 -16 6 -36 -5 -20 -10 -24 -15 -11 -15 23 0 13 -18
-17 -30 -18 -7 -15 -9 16 -9 61 -1 51 -15 -30 -45 -96 -35 -134 -58 -197 -118
l-51 -47 -74 36 c-61 29 -86 35 -138 35 -62 0 -63 1 -45 20 10 11 17 23 16 27
0 3 4 5 10 3 7 -2 9 0 5 4 -16 15 16 34 56 34 30 0 37 -3 26 -10 -11 -7 -8
-10 16 -10 16 0 39 -7 50 -15 22 -17 38 -20 29 -5 -4 6 -25 20 -48 32 -33 18
-60 22 -127 23 -75 0 -91 -3 -130 -27 -43 -25 -62 -48 -74 -93 -3 -11 -20 -29
-37 -40 -17 -11 -42 -40 -56 -64 -22 -36 -26 -56 -26 -115 0 -81 22 -139 74
-194 29 -31 35 -33 78 -27 119 14 189 17 195 7 6 -10 -74 -67 -129 -91 -16 -7
-68 -19 -115 -26 -79 -12 -88 -12 -132 7 -27 11 -48 24 -48 29 0 5 41 9 92 9
65 0 96 4 107 14 9 8 32 18 51 23 35 9 35 10 8 15 -15 3 -25 1 -22 -4 3 -5 -7
-6 -23 -3 -19 5 -24 4 -15 -3 11 -7 11 -10 -2 -15 -9 -4 -15 -1 -13 5 1 6 -33
18 -79 29 -143 31 -194 71 -194 154 0 20 7 52 15 72 18 44 13 54 -10 20 -48
-74 -65 -168 -46 -264 5 -24 5 -43 1 -43 -18 0 -80 83 -90 121 -10 36 -9 49 4
77 9 18 11 30 5 26 -6 -3 -20 -27 -31 -52 -16 -36 -19 -56 -13 -108 6 -58 5
-64 -12 -64 -34 -1 -101 -38 -142 -80 -157 -162 -176 -427 -39 -545 21 -17 38
-35 38 -38 0 -4 -21 -16 -47 -28 -32 -15 -57 -19 -82 -15 l-35 5 25 -25 c32
-32 88 -45 157 -37 59 7 64 -1 28 -40 -53 -57 -189 -56 -248 3 -15 16 -28 23
-28 16 0 -16 94 -124 134 -154 36 -27 97 -45 121 -36 17 7 17 6 0 -19 -17 -27
-17 -27 8 -27 26 0 26 0 20 -68 -5 -60 -2 -76 22 -129 14 -33 25 -71 23 -84
-4 -31 -50 -49 -80 -30 -17 10 -19 10 -16 -1 2 -7 21 -22 41 -33 44 -24 45
-35 11 -81 -30 -38 -65 -45 -103 -18 -23 16 -23 16 -16 -7 18 -56 38 -81 82
-101 40 -18 51 -19 87 -8 23 7 47 17 54 22 7 6 15 8 18 5 3 -3 -8 -15 -25 -28
-38 -28 -40 -41 -4 -37 35 4 53 38 53 100 0 58 15 71 25 20 9 -53 49 -108 95
-132 21 -11 45 -20 52 -20 7 1 -9 12 -35 26 -50 26 -80 65 -97 123 -7 27 -5
43 9 76 29 67 41 65 41 -5 0 -73 17 -117 59 -153 86 -72 212 -20 240 99 7 31
9 17 7 -68 0 -58 2 -104 5 -102 14 8 21 74 21 181 -1 120 -17 174 -62 201 -11
7 -19 20 -18 28 5 27 -75 64 -137 64 -29 0 -56 -4 -60 -10 -3 -5 -12 -7 -19
-4 -17 7 -56 -33 -56 -57 0 -10 -4 -21 -10 -24 -5 -3 -10 -11 -10 -16 0 -6 5
-7 12 -3 7 4 3 -8 -8 -27 -11 -19 -27 -55 -34 -81 -8 -27 -18 -48 -21 -48 -4
0 -10 30 -14 68 -4 37 -13 108 -21 157 -17 107 -18 176 -4 282 12 85 37 166
50 158 5 -3 11 1 13 7 4 10 6 10 6 0 1 -7 5 -10 11 -7 6 3 7 -1 4 -9 -7 -19
-11 -19 77 -5 81 12 178 48 223 83 l33 24 12 -33 c15 -42 56 -83 106 -106 54
-25 93 -24 124 4 l26 22 -20 -25 c-29 -36 -36 -40 -77 -40 -75 0 -85 -21 -42
-85 l26 -38 -21 -54 c-24 -62 -18 -91 23 -113 34 -18 75 -4 95 32 14 24 14 30
-2 63 -10 21 -26 39 -36 42 -16 4 -15 8 11 33 15 16 28 34 28 41 0 6 -12 0
-27 -15 -36 -36 -63 -31 -87 17 -10 21 -16 41 -13 44 3 3 26 8 51 10 31 4 51
1 67 -11 38 -26 73 -20 108 19 17 19 35 35 40 35 27 0 124 107 157 175 33 67
36 79 34 156 -1 46 -2 95 -3 108 -2 25 0 26 76 45 24 6 27 4 27 -21 1 -16 9
-53 20 -83 10 -30 16 -58 13 -63 -7 -12 26 -59 37 -52 6 3 7 -1 4 -10 -4 -11
-2 -14 9 -9 10 3 24 -6 38 -26 14 -18 30 -29 39 -27 18 5 42 -17 32 -28 -4 -4
6 -5 22 -1 25 6 28 5 17 -8 -10 -12 -9 -14 10 -9 18 5 20 3 14 -16 -11 -36 -7
-117 7 -143 30 -53 68 -95 109 -117 l44 -24 -48 43 c-29 26 -46 48 -43 57 3 8
1 11 -4 8 -6 -3 -7 1 -4 9 3 9 2 16 -4 16 -6 0 -8 9 -5 19 3 12 11 17 20 14 8
-3 13 -14 10 -24 -3 -11 -1 -16 5 -13 12 8 130 -115 151 -158 8 -18 21 -48 28
-67 7 -18 41 -76 76 -127 35 -52 63 -97 63 -100 0 -2 9 -17 20 -32 14 -18 21
-48 24 -92 2 -36 6 -72 8 -80 2 -9 -6 -16 -22 -18 -17 -3 -31 4 -47 24 l-22
28 -6 -27 c-9 -34 0 -72 27 -107 24 -33 17 -50 -20 -50 -41 0 -53 13 -59 59
-7 53 -23 35 -23 -25 0 -36 5 -47 36 -73 19 -17 32 -36 29 -41 -15 -25 51
-188 74 -182 6 1 11 -2 11 -8 0 -5 5 -10 10 -10 6 0 10 15 10 33 1 44 27 97
79 157 32 36 47 47 53 38 5 -9 8 -8 8 5 0 27 58 103 99 130 41 27 147 67 178
67 25 0 70 -41 83 -75 25 -65 3 -205 -48 -299 -38 -73 -149 -181 -214 -211
-69 -32 -164 -36 -213 -10 l-33 19 -66 -54 c-57 -46 -69 -61 -81 -104 -17 -60
-40 -214 -34 -221 3 -2 36 2 73 10 78 16 158 63 183 106 10 16 21 29 25 29 22
0 17 -35 -11 -85 -17 -30 -31 -57 -31 -60 0 -14 36 -2 69 25 20 17 63 37 95
45 32 9 71 23 85 31 36 21 71 74 70 105 -1 23 -1 22 -9 -5 -12 -38 -46 -73
-78 -81 -15 -3 -36 -8 -47 -11 -11 -3 -7 3 10 12 26 15 95 81 95 91 0 2 -9 -1
-19 -7 -23 -12 -44 -13 -37 -2 7 11 83 48 128 62 59 18 180 102 211 146 17 26
27 53 27 77 0 21 5 37 11 37 12 0 7 -119 -6 -170 -6 -22 -2 -20 29 15 74 81
105 180 76 235 -9 17 -3 23 56 52 76 37 147 96 171 142 19 36 46 133 34 120
-14 -15 -51 -88 -51 -101 0 -6 -4 -15 -10 -18 -6 -4 -7 1 -3 11 5 13 3 15 -8
10 -8 -4 -6 -1 4 7 19 16 24 35 5 20 -7 -6 -26 -13 -41 -15 l-28 -5 20 21 c12
12 21 25 21 29 0 15 88 101 141 137 31 22 71 57 89 80 l32 40 -77 -41 c-62
-34 -89 -42 -143 -46 l-67 -4 90 45 c143 70 214 164 232 305 l5 46 -33 -50
c-76 -113 -187 -195 -263 -195 -58 0 -55 15 16 97 23 26 59 86 81 133 22 47
50 99 62 115 45 61 68 119 73 186 6 82 -13 148 -72 261 -30 55 -43 92 -39 106
8 34 -16 117 -49 167 -53 80 -160 124 -233 96 -16 -7 -13 -9 18 -15 63 -12
118 -104 116 -196 -1 -71 -11 -74 -56 -16 -52 68 -122 111 -180 111 -24 0 -43
4 -43 8 0 5 7 34 16 65 12 39 15 77 11 127 -6 81 -44 195 -58 174 -7 -12 -9
-12 -9 0 0 8 -3 12 -6 9 -3 -4 0 -16 6 -28 9 -18 9 -21 0 -15 -9 6 -11 -5 -5
-46 l7 -54 -34 40 c-97 116 -223 195 -313 195 -19 0 -35 5 -35 10 0 15 92 12
141 -5 51 -18 114 -59 145 -94 27 -32 48 -20 40 23 -3 17 -9 51 -12 76 -9 66
-50 137 -124 210 -87 87 -159 122 -260 126 l-75 3 59 -19 c32 -10 72 -31 88
-47 29 -28 84 -111 77 -117 -2 -1 -34 0 -70 3 -65 6 -67 7 -155 84 -86 75
-224 157 -265 157 -23 0 -24 13 -3 31 27 22 56 90 56 133 1 46 -22 90 -56 108
-17 8 -15 4 8 -20z m-73 -253 c38 -7 69 -16 69 -21 0 -5 4 -6 10 -3 5 3 22 -1
37 -9 16 -8 21 -15 13 -16 -8 0 0 -8 17 -17 18 -10 43 -28 57 -40 13 -12 27
-19 30 -16 3 4 6 1 6 -5 0 -7 -7 -12 -15 -12 -8 0 -15 -4 -15 -9 0 -5 -19 -12
-42 -16 -35 -6 -39 -9 -26 -19 25 -18 88 -97 88 -109 0 -6 -21 9 -47 35 -73
69 -147 115 -226 139 -64 19 -89 21 -222 17 -131 -4 -158 -8 -212 -30 -84 -34
-84 -20 -3 42 25 19 47 38 48 42 2 5 8 6 13 3 5 -3 19 0 31 6 81 44 252 60
389 38z m470 -87 c-7 -2 -18 1 -23 6 -8 8 -4 9 13 5 13 -4 18 -8 10 -11z m89
-28 c50 -25 93 -70 96 -98 2 -16 11 -37 20 -47 9 -11 15 -22 12 -25 -3 -3 -16
9 -28 26 -12 16 -26 27 -32 24 -7 -4 -8 -2 -4 5 5 7 -5 24 -24 41 -18 17 -27
30 -20 30 14 0 -21 29 -65 54 -26 15 -27 16 -5 10 14 -4 36 -12 50 -20z
m-1283 -155 c-8 -19 -17 -41 -20 -50 -5 -15 -12 -15 -78 -2 -41 7 -78 18 -83
23 -11 11 10 40 30 40 21 0 17 -20 -3 -21 -37 -1 27 -18 79 -21 54 -3 78 15
38 30 -19 7 -20 9 -6 21 9 7 23 11 31 7 8 -3 15 0 15 6 0 6 2 9 5 6 3 -3 -1
-20 -8 -39z m1331 -15 c38 -12 52 -22 52 -35 0 -11 -4 -19 -10 -19 -5 0 -10 4
-10 10 0 5 -23 1 -50 -10 -28 -11 -66 -20 -85 -20 -18 0 -44 -4 -57 -9 -13 -4
-48 -11 -79 -15 l-56 -7 4 25 c3 14 12 26 20 26 8 0 11 5 8 10 -3 6 2 10 11
10 10 0 14 3 11 7 -12 11 126 53 158 48 17 -3 54 -12 83 -21z m37 -104 c3 -5
1 -10 -4 -10 -6 0 -11 5 -11 10 0 6 2 10 4 10 3 0 8 -4 11 -10z m55 -25 c16
-19 0 -19 -26 0 -16 12 -16 14 -3 15 9 0 22 -7 29 -15z m-903 -19 c70 -19 132
-48 133 -63 0 -6 10 -19 21 -27 12 -8 19 -21 16 -28 -2 -8 1 -22 9 -33 8 -10
14 -28 14 -39 0 -18 -2 -18 -28 7 -15 15 -31 27 -35 27 -3 0 -32 12 -64 28
-53 25 -68 27 -173 27 -109 -1 -122 -3 -237 -43 -66 -23 -131 -42 -144 -42
-21 0 -21 1 -6 18 10 10 14 22 11 25 -10 10 33 41 123 87 45 24 80 46 78 51
-8 12 24 17 130 18 57 0 122 -5 152 -13z m-1387 -260 c0 -2 -8 -10 -17 -17
-16 -13 -17 -12 -4 4 13 16 21 21 21 13z m2700 -85 c0 -5 8 -7 19 -4 23 6 70
-17 96 -48 l20 -24 -25 21 c-27 22 -81 46 -96 43 -5 -1 -20 3 -34 9 -24 10
-24 11 -2 11 12 1 22 -3 22 -8z m-577 -72 c145 -96 171 -290 59 -437 -35 -46
-39 -32 -6 18 68 103 27 294 -88 412 -48 49 -32 52 35 7z m-1303 -130 c-30
-17 -69 -37 -86 -45 -18 -9 -50 -31 -72 -50 -46 -39 -49 -40 -49 -19 0 8 4 15
8 15 4 0 10 9 14 20 7 22 84 77 135 96 19 7 51 13 70 13 l35 1 -55 -31z m1315
-29 c9 0 12 -6 8 -17 -4 -10 -2 -14 4 -10 31 19 18 -142 -16 -196 -28 -45 -77
-90 -90 -82 -6 3 -39 -7 -74 -24 -125 -60 -142 -47 -48 34 32 28 66 64 76 80
42 66 74 135 80 169 5 25 12 36 25 36 12 0 17 6 15 18 -1 9 0 11 2 5 3 -7 11
-13 18 -13z m-305 -29 c0 -101 -139 -200 -294 -209 -57 -3 -77 -2 -72 7 4 6
14 11 23 11 20 0 84 22 98 33 6 4 24 16 42 25 18 9 64 47 102 85 71 68 101 82
101 48z m-812 -65 c-2 -19 0 -32 5 -29 19 11 2 -131 -21 -178 -34 -69 -90
-131 -113 -124 -11 4 -19 2 -19 -5 0 -6 -12 -4 -31 6 l-31 16 28 29 c35 36 53
38 24 2 -16 -20 -18 -28 -8 -35 8 -4 17 -2 24 7 6 8 13 12 16 9 4 -3 9 0 14 7
4 8 3 10 -4 5 -7 -4 -12 -2 -12 3 0 6 5 11 10 11 6 0 10 7 10 15 0 8 6 15 13
15 15 0 36 33 48 72 8 29 -6 39 -27 18 -7 -7 -11 -1 -11 19 0 34 22 49 30 20
7 -26 27 -24 27 4 -1 41 -59 88 -79 63 -6 -7 -8 -15 -6 -18 3 -3 -3 -8 -14
-11 -14 -3 -18 0 -16 12 2 9 4 19 4 23 1 4 10 10 21 13 11 3 20 12 20 20 0 7
7 15 15 19 12 4 14 0 9 -19 -8 -32 4 -32 16 0 5 14 16 25 25 25 8 0 15 5 15
10 0 6 5 10 11 10 7 0 10 -13 7 -34z m1510 -64 c19 -42 11 -155 -14 -209 -33
-71 -130 -183 -158 -183 -11 0 -6 27 11 61 17 33 23 52 25 76 1 6 7 9 15 6 7
-3 13 2 13 12 0 9 -4 13 -10 10 -13 -8 -13 -2 7 63 15 51 17 54 24 32 4 -14 7
-19 8 -12 1 7 5 11 10 8 18 -12 33 71 28 155 -6 93 -8 94 41 -19z m-1652 50
c-9 -8 -26 10 -26 26 1 15 2 15 15 -2 8 -11 13 -21 11 -24z m2049 -28 c6 -50
-1 -134 -11 -134 -3 0 -60 35 -93 57 -2 1 11 19 29 39 18 21 37 50 42 66 15
42 25 34 33 -28z m-2105 16 c5 0 11 6 13 13 3 6 6 8 6 2 0 -5 -4 -17 -9 -25
-8 -12 -13 -13 -29 -3 -17 11 -22 10 -30 -5 -5 -9 -13 -14 -16 -10 -4 4 6 19
21 33 24 22 30 24 32 11 2 -9 7 -16 12 -16z m0 -74 c0 -18 -2 -17 -15 8 -19
36 -19 42 0 26 8 -7 15 -22 15 -34z m390 -1 c0 -5 -5 -3 -10 5 -5 8 -10 20
-10 25 0 6 5 3 10 -5 5 -8 10 -19 10 -25z m-352 -14 c2 -22 -2 -31 -13 -31
-16 0 -18 12 -9 47 8 30 19 22 22 -16z m-89 -7 c25 -32 15 -65 -24 -76 -37 -9
-54 5 -47 40 5 27 29 62 43 62 4 0 17 -12 28 -26z m131 -18 c0 -10 -11 -31
-24 -47 -21 -24 -26 -26 -36 -14 -17 20 -5 45 21 45 15 0 19 5 15 15 -3 8 -3
22 1 31 5 13 7 13 14 2 5 -7 9 -21 9 -32z m856 -4 c-20 -38 -42 -56 -51 -42
-4 7 2 18 14 26 12 8 21 22 21 30 0 8 7 14 15 14 14 0 14 -3 1 -28z m-68 -59
c-2 -10 -7 -16 -12 -15 -5 2 -12 -2 -16 -8 -5 -9 -9 -9 -14 -1 -4 6 -2 11 3
11 6 0 11 7 11 15 0 8 7 15 16 15 9 0 14 -7 12 -17z m-1046 -31 c-7 -2 -10 -8
-7 -12 3 -5 1 -11 -5 -15 -11 -7 -13 5 -4 29 3 9 11 13 17 9 8 -5 7 -8 -1 -11z
m173 -42 c-10 -11 -20 -18 -23 -15 -7 6 18 35 31 35 5 0 2 -9 -8 -20z m-172
-7 c-7 -2 -19 -2 -25 0 -7 3 -2 5 12 5 14 0 19 -2 13 -5z m94 -28 c0 -8 -4
-15 -8 -15 -4 0 -9 7 -13 15 -3 9 0 15 8 15 7 0 13 -7 13 -15z m-92 -13 c-3
-3 -11 0 -18 7 -9 10 -8 11 6 5 10 -3 15 -9 12 -12z m35 -36 c0 -3 -4 -8 -10
-11 -5 -3 -10 -1 -10 4 0 6 5 11 10 11 6 0 10 -2 10 -4z m134 -12 c19 -19 7
-49 -23 -59 -20 -6 -61 21 -61 40 0 34 57 47 84 19z m-89 -44 c3 -5 2 -10 -4
-10 -5 0 -13 5 -16 10 -3 6 -2 10 4 10 5 0 13 -4 16 -10z m999 -71 c-6 -10 43
-32 55 -24 7 3 10 1 9 -6 -2 -7 8 -18 22 -26 19 -10 21 -13 7 -13 -23 0 -74
26 -109 55 -27 23 -27 23 -3 21 13 0 21 -4 19 -7z m-1011 -121 c2 -7 0 -26 -6
-41 -7 -20 -13 -25 -20 -18 -6 6 -22 11 -36 11 -43 0 -57 14 -43 44 17 37 92
40 105 4z m-446 -204 c-3 -3 -12 -4 -19 -1 -8 3 -5 6 6 6 11 1 17 -2 13 -5z
m118 -134 c0 -16 -6 -26 -18 -28 -19 -4 -32 20 -23 44 9 25 41 13 41 -16z
m-85 -152 c0 -12 -6 -9 -26 13 -19 22 -19 22 4 8 12 -8 22 -17 22 -21z"/>
<path d="M16550 9366 c0 -2 7 -7 16 -10 8 -3 12 -2 9 4 -6 10 -25 14 -25 6z"/>
<path d="M16765 8197 c-4 -10 -5 -21 -1 -24 10 -10 18 4 13 24 -4 17 -4 17
-12 0z"/>
<path d="M15828 9793 c7 -3 16 -2 19 1 4 3 -2 6 -13 5 -11 0 -14 -3 -6 -6z"/>
<path d="M15520 9780 c0 -5 4 -10 9 -10 6 0 13 5 16 10 3 6 -1 10 -9 10 -9 0
-16 -4 -16 -10z"/>
<path d="M15510 9751 c0 -12 29 -41 41 -41 17 0 9 29 -10 40 -24 12 -31 13
-31 1z"/>
<path d="M15480 9694 c-24 -13 -23 -14 23 -14 26 0 47 5 47 10 0 6 -4 10 -9
10 -5 0 -15 2 -23 4 -7 2 -24 -2 -38 -10z"/>
<path d="M15500 9656 c0 -9 30 -14 35 -6 4 6 -3 10 -14 10 -12 0 -21 -2 -21
-4z"/>
<path d="M15468 9583 c6 -2 18 -2 25 0 6 3 1 5 -13 5 -14 0 -19 -2 -12 -5z"/>
<path d="M14540 7978 c-74 -37 -136 -150 -128 -231 l3 -32 22 41 c33 61 71
102 116 125 51 26 92 21 152 -20 l45 -30 -6 27 c-29 134 -97 174 -204 120z"/>
<path d="M15405 7991 c-57 -10 -120 -45 -148 -83 -31 -42 -50 -78 -44 -84 3
-3 33 7 68 23 55 24 77 28 154 27 77 0 102 -5 171 -32 44 -18 114 -55 154 -82
40 -28 75 -48 78 -46 9 9 -111 166 -152 200 -58 47 -95 64 -167 75 -35 6 -66
10 -69 10 -3 -1 -23 -5 -45 -8z"/>
<path d="M15415 7709 c-4 -5 -14 -9 -23 -7 -21 4 -85 -61 -78 -78 3 -7 0 -11
-7 -8 -13 4 -16 -52 -4 -61 4 -3 5 -2 2 1 -8 11 57 64 105 87 56 27 167 28
220 3 23 -11 26 -14 10 -10 -146 35 -265 3 -321 -87 -13 -20 -27 -35 -30 -33
-3 2 -12 -27 -19 -64 -18 -101 11 -189 77 -226 29 -16 179 -26 238 -15 70 13
213 66 235 87 24 24 39 88 30 127 -4 19 -20 61 -35 94 -29 62 -61 92 -155 142
-25 13 -47 27 -50 30 -3 3 -27 6 -55 8 -27 1 -54 7 -59 12 -13 12 -29 12 -21
-1 3 -5 -1 -10 -9 -10 -8 0 -18 5 -21 10 -8 13 -22 13 -30 -1z m256 -141 c150
-77 175 -238 46 -305 -123 -63 -327 -55 -399 17 -45 45 -39 138 15 217 12 18
24 33 27 33 3 0 3 -27 2 -59 -4 -70 22 -140 62 -166 89 -58 205 -26 273 76 21
31 25 47 20 79 -9 70 -51 111 -132 131 -29 7 -29 7 -4 8 14 1 55 -14 90 -31z
m-71 -53 c10 -12 10 -18 0 -30 -7 -8 -18 -15 -25 -15 -7 0 -18 7 -25 15 -10
12 -10 18 0 30 7 8 18 15 25 15 7 0 18 -7 25 -15z"/>
<path d="M16556 7311 c-3 -5 -18 -12 -33 -16 -47 -11 -101 -55 -123 -99 -21
-45 -27 -101 -10 -111 6 -4 10 -3 8 2 -7 29 17 93 50 130 60 68 126 71 162 5
l21 -37 -5 39 c-5 41 -30 76 -53 76 -8 0 -11 5 -8 10 3 6 4 10 1 10 -3 0 -7
-4 -10 -9z"/>
<path d="M14422 7270 c0 -14 2 -19 5 -12 2 6 2 18 0 25 -3 6 -5 1 -5 -13z"/>
<path d="M14411 7224 c0 -11 3 -14 6 -6 3 7 2 16 -1 19 -3 4 -6 -2 -5 -13z"/>
<path d="M14720 7151 c-20 -38 -12 -78 21 -105 34 -29 59 -34 59 -11 0 8 8 15
18 16 10 0 3 7 -17 15 -18 8 -39 13 -46 11 -13 -5 -15 3 -18 58 -2 41 -3 41
-17 16z"/>
<path d="M14880 7051 c-36 -10 -7 -18 55 -15 62 3 65 3 40 14 -24 10 -61 11
-95 1z"/>
<path d="M16353 7019 c-19 -6 -39 -22 -51 -42 -25 -40 -38 -97 -23 -97 6 0 11
4 11 8 0 5 23 15 50 22 28 8 58 22 67 32 16 18 16 18 0 12 -12 -4 -17 -1 -17
10 0 9 5 16 10 16 6 0 10 5 10 10 0 6 -7 10 -15 10 -9 0 -12 6 -9 15 4 8 5 15
3 14 -2 0 -18 -5 -36 -10z m12 -39 c-3 -5 -11 -10 -16 -10 -6 0 -7 5 -4 10 3
6 11 10 16 10 6 0 7 -4 4 -10z"/>
<path d="M14402 6990 c0 -14 2 -19 5 -12 2 6 2 18 0 25 -3 6 -5 1 -5 -13z"/>
<path d="M14411 6944 c0 -11 3 -14 6 -6 3 7 2 16 -1 19 -3 4 -6 -2 -5 -13z"/>
<path d="M14426 6900 c9 -34 46 -112 50 -107 2 2 -9 33 -26 68 -17 35 -28 53
-24 39z"/>
<path d="M14680 6881 c0 -20 91 -121 109 -121 6 0 11 -4 11 -8 0 -5 22 -19 49
-32 42 -19 61 -22 123 -18 60 4 92 13 176 51 112 51 128 53 197 35 39 -10 48
-10 55 2 15 24 -6 45 -64 63 -84 25 -103 22 -97 -15 0 -5 -4 -8 -10 -8 -5 0
-8 -4 -5 -9 3 -5 -4 -11 -17 -15 -42 -11 -108 -6 -193 15 -65 17 -90 19 -107
11 -12 -6 -29 -13 -37 -15 -8 -2 6 -8 33 -12 73 -11 59 -29 -19 -22 -71 7
-134 26 -134 40 0 5 19 6 43 3 23 -3 35 -3 27 0 -8 3 -34 12 -57 20 -24 9 -45
24 -48 35 -8 24 -35 25 -35 0z"/>
<path d="M12497 6696 c-50 -18 -64 -31 -77 -71 -19 -59 1 -108 65 -155 30 -22
55 -46 55 -53 0 -7 7 -23 16 -35 12 -18 19 -20 30 -11 11 9 21 5 46 -16 24
-21 38 -25 61 -21 25 5 50 -7 156 -72 69 -44 203 -125 298 -181 l171 -102 11
-47 10 -47 -5 52 c-6 64 13 114 63 165 30 31 39 35 52 25 12 -10 13 -9 6 2 -5
10 -4 12 3 7 19 -12 14 -27 -34 -101 -24 -38 -47 -80 -50 -92 -4 -13 -10 -23
-15 -23 -5 0 -9 -12 -9 -26 0 -16 -4 -23 -11 -18 -8 4 -9 -1 -4 -17 15 -49 37
-79 127 -180 52 -57 107 -122 124 -144 36 -48 68 -125 51 -125 -8 0 -7 -4 1
-12 7 -7 12 -20 12 -31 0 -14 -5 -17 -22 -11 -13 4 -27 12 -31 18 -4 6 -7 0
-5 -14 2 -14 10 -25 18 -26 43 -3 46 -4 31 -13 -20 -13 -6 -41 20 -38 16 1 28
-9 45 -38 24 -42 31 -75 14 -75 -15 0 -12 -36 10 -125 24 -93 55 -164 106
-241 66 -99 200 -224 224 -209 6 4 9 1 8 -5 -3 -13 72 -63 112 -75 15 -5 3 8
-30 30 -93 65 -175 135 -213 184 -15 20 -34 41 -42 47 -8 6 -33 42 -55 80 -22
38 -40 64 -41 59 -1 -16 -25 69 -33 113 -5 33 -3 42 8 42 8 0 18 -4 21 -10 10
-16 96 -12 152 8 76 27 213 162 213 211 0 9 5 23 10 31 8 13 11 12 25 -5 8
-11 25 -37 36 -59 l21 -39 69 69 c37 37 66 70 64 73 -3 2 -30 -24 -61 -57 -31
-34 -59 -62 -63 -62 -3 0 -15 17 -26 37 -26 50 -71 97 -84 88 -6 -3 -11 -2
-11 4 0 5 5 13 10 16 6 3 10 14 10 23 0 13 -2 13 -15 -4 -14 -18 -15 -17 -9
10 7 29 7 29 -13 10 -12 -11 -16 -23 -11 -28 4 -6 7 -19 7 -30 -1 -16 -2 -17
-6 -5 -3 15 -31 28 -56 29 -4 0 5 -12 20 -26 l28 -25 -26 4 c-25 4 -26 2 -22
-32 4 -32 1 -38 -31 -58 -20 -13 -40 -23 -46 -23 -10 0 -50 58 -50 73 0 16 36
5 62 -20 21 -20 31 -24 39 -16 13 13 -1 31 -39 52 -31 16 -28 24 16 46 26 13
32 20 20 22 -22 6 -30 30 -14 46 8 7 17 28 21 45 3 18 11 32 16 32 6 0 7 5 4
10 -3 6 1 10 9 10 10 0 13 6 9 16 -5 14 -3 14 16 3 12 -8 17 -15 11 -17 -13
-5 -13 -49 0 -57 6 -3 10 3 10 14 0 11 5 23 12 27 6 4 9 3 6 -2 -3 -5 0 -15 8
-22 8 -7 14 -9 15 -5 1 4 7 -19 15 -52 l13 -60 -4 63 c-3 34 -2 62 1 62 3 0
49 -26 102 -57 54 -31 147 -84 207 -118 180 -100 209 -118 222 -131 7 -7 18
-14 25 -16 9 -3 9 -21 0 -84 -7 -43 -13 -99 -14 -124 -1 -31 -2 -36 -5 -15
-10 81 -15 83 -34 15 -10 -36 -18 -76 -19 -89 0 -13 -6 -44 -14 -70 -24 -75
-66 -240 -66 -256 0 -8 -4 -15 -8 -15 -4 0 -14 -17 -22 -37 -16 -47 -59 -113
-73 -113 -9 0 -7 17 9 80 4 16 -7 6 -32 -30 -40 -58 -97 -119 -179 -188 -27
-23 -41 -40 -30 -36 11 4 27 13 35 20 8 7 29 15 45 19 27 6 28 5 13 -8 -10 -8
-18 -20 -18 -27 0 -6 -13 -32 -30 -57 -16 -24 -30 -46 -30 -49 0 -3 -11 -20
-23 -37 -25 -33 -85 -136 -124 -210 -12 -23 -27 -41 -32 -39 -6 1 -11 -3 -11
-9 0 -13 -125 -175 -144 -186 -7 -4 -34 -26 -60 -48 -26 -22 -57 -48 -68 -57
-12 -10 -27 -18 -35 -18 -7 0 -13 -4 -13 -9 0 -5 -16 -15 -35 -21 -19 -6 -35
-18 -35 -26 0 -8 -6 -14 -14 -14 -7 0 -25 -11 -39 -24 -14 -13 -29 -26 -34
-28 -29 -13 -83 -51 -83 -59 0 -5 -10 -9 -21 -9 -22 0 -22 0 2 23 14 12 44 37
67 56 24 18 41 35 38 38 -6 6 -57 -22 -83 -46 -12 -12 -26 -21 -30 -21 -5 0
-16 -9 -26 -20 -9 -11 -28 -20 -42 -20 -14 0 -28 -7 -31 -15 -4 -8 -15 -15
-25 -15 -10 0 -19 -7 -19 -15 0 -8 7 -15 15 -15 12 0 11 -4 -5 -20 -23 -23
-38 -27 -21 -6 9 11 9 16 1 21 -17 10 -57 -14 -64 -38 -3 -12 -10 -18 -20 -14
-8 3 -20 0 -26 -8 -6 -8 -18 -11 -26 -8 -8 3 -14 1 -14 -5 0 -5 -8 -12 -17
-15 -10 -2 -27 -8 -37 -13 -15 -6 -18 -4 -13 9 4 11 2 14 -9 10 -7 -3 -14 -10
-14 -17 0 -6 -17 -19 -38 -29 -20 -10 -31 -13 -24 -6 6 7 12 19 12 27 0 9 -15
1 -38 -20 -20 -18 -64 -50 -97 -70 -121 -74 -225 -100 -305 -77 -25 7 -56 11
-70 10 -16 -1 -21 1 -13 7 8 5 0 8 -22 8 -19 0 -35 -1 -35 -2 0 -1 34 -14 75
-29 72 -27 81 -28 178 -20 178 15 177 15 328 -62 185 -96 245 -110 410 -95
113 10 197 31 266 64 34 17 38 3 10 -27 l-25 -27 19 -51 c11 -29 19 -53 19
-54 0 -2 6 -3 13 -3 20 0 55 -82 67 -156 6 -36 28 -107 49 -158 21 -51 43
-108 47 -127 l9 -34 5 48 5 49 23 -20 c13 -11 20 -26 16 -35 -3 -8 -1 -18 5
-22 6 -3 11 -1 11 4 0 20 20 11 30 -13 5 -13 17 -30 27 -37 10 -8 31 -33 46
-56 26 -37 57 -63 57 -46 0 10 -52 96 -67 111 -7 7 -13 18 -13 24 0 6 -10 30
-22 55 -17 34 -19 46 -9 56 10 9 14 8 22 -5 20 -35 27 -16 34 89 4 71 13 123
26 152 10 24 19 58 19 75 0 44 18 61 42 39 10 -9 18 -25 18 -35 0 -30 34 -18
38 13 2 17 12 31 28 38 31 14 94 15 94 1 0 -5 5 -10 12 -10 6 0 20 -7 30 -17
24 -22 30 -13 17 26 -6 17 -8 39 -4 49 5 13 10 8 21 -23 7 -22 14 -54 14 -72
0 -17 5 -35 10 -38 6 -3 10 -14 10 -23 0 -39 23 -94 85 -201 36 -62 65 -120
65 -128 0 -8 4 -12 8 -9 5 3 23 -8 41 -24 18 -17 26 -30 19 -30 -10 0 -10 -2
0 -9 12 -7 28 -30 48 -69 12 -24 -8 -27 -26 -4 -18 22 -40 30 -40 14 0 -5 25
-40 54 -80 120 -155 142 -178 231 -243 44 -32 89 -65 100 -74 11 -9 47 -33 79
-55 l60 -39 -28 -11 c-35 -13 -32 -14 -56 12 -20 22 -38 20 -24 -4 28 -45 -3
-60 -126 -64 -132 -4 -158 9 -292 146 -160 164 -186 240 -133 395 15 44 30 82
34 85 13 10 38 76 34 88 -7 19 -21 14 -29 -10 -3 -13 -14 -41 -24 -63 -60
-136 -72 -179 -67 -227 8 -66 36 -124 97 -204 29 -37 56 -79 62 -93 14 -34 38
-121 42 -147 4 -29 31 -66 41 -56 5 4 5 1 1 -6 -10 -17 13 -43 80 -93 52 -38
62 -55 168 -278 6 -13 31 -35 56 -49 47 -26 54 -40 97 -206 5 -18 6 -18 18 4
12 22 13 22 17 4 4 -17 6 -16 18 8 l13 28 128 -3 c128 -2 151 -9 132 -39 -3
-6 -1 -8 5 -4 6 3 13 2 17 -4 3 -5 15 -10 26 -10 17 0 24 -11 20 -33 -1 -5 3
-6 9 -2 6 3 9 -2 7 -12 -1 -10 3 -20 8 -23 14 -6 45 -78 45 -104 0 -12 -6 -28
-12 -36 -11 -12 -10 -12 5 -1 35 27 14 100 -70 238 -37 62 -57 107 -60 135 -4
40 -2 46 37 82 68 64 74 78 77 185 4 182 11 273 21 283 7 7 4 29 -10 67 -21
57 -38 85 -38 63 0 -7 -5 -12 -11 -12 -7 0 -9 9 -6 21 9 33 -34 108 -108 189
-129 139 -143 221 -65 382 31 64 33 80 7 54 -17 -17 -32 -9 -16 10 7 8 5 33
-6 81 -27 114 -29 223 -6 371 11 73 23 137 27 144 4 7 3 8 -4 4 -9 -5 -9 0 -2
19 11 29 40 148 46 185 1 14 10 54 19 90 9 36 19 75 22 88 4 16 1 22 -11 22
-19 0 -22 36 -3 43 15 5 93 -17 111 -32 10 -8 17 -7 26 4 21 25 28 17 32 -35
1 -28 0 -50 -4 -50 -10 0 -30 -67 -26 -87 3 -11 18 12 41 60 53 110 69 126
120 120 30 -3 38 -2 28 5 -20 14 41 26 122 23 30 -1 37 -5 37 -21 0 -28 14
-25 28 5 11 24 52 36 52 15 0 -5 9 -14 21 -21 17 -9 31 -6 77 19 32 16 68 33
82 37 13 4 37 21 53 37 21 21 33 26 40 19 20 -20 53 -11 89 23 20 19 39 48 43
65 3 17 11 34 17 37 7 5 9 0 6 -14 -4 -12 -2 -22 3 -22 15 0 10 57 -6 74 -8 8
-15 21 -15 29 0 8 -12 36 -26 61 -22 40 -25 51 -15 72 16 35 14 42 -5 16 -8
-12 -20 -22 -25 -22 -6 0 -18 -9 -27 -20 l-17 -21 -13 21 c-11 18 -8 22 28 45
22 14 40 33 40 42 0 14 -3 13 -20 -5 -12 -12 -25 -22 -30 -22 -4 0 -17 -3 -27
-7 -15 -6 -16 -4 -6 8 10 12 9 29 -3 79 -13 56 -13 66 -1 75 8 6 16 19 18 29
6 31 24 29 42 -6 14 -26 16 -27 11 -8 -3 14 -8 55 -11 93 -4 53 -8 65 -18 57
-9 -8 -14 -1 -18 31 -3 23 -10 46 -16 52 -7 7 -8 -2 -5 -27 2 -20 0 -45 -6
-56 -13 -24 -122 -85 -186 -105 -71 -21 -233 -43 -356 -48 -100 -4 -106 -4
-105 14 1 11 5 19 9 19 4 0 8 9 8 20 0 14 7 20 23 20 22 0 57 27 57 44 0 4 16
22 35 40 40 38 44 56 15 56 -11 0 -23 7 -26 15 -8 19 40 101 71 121 14 9 25
23 25 31 0 9 6 13 14 10 10 -4 13 -1 9 9 -7 19 -6 19 93 -21 49 -20 124 -45
168 -56 44 -11 88 -25 97 -30 14 -7 16 -5 12 11 -8 29 18 34 81 16 49 -15 60
-15 90 -2 58 24 71 74 35 133 -11 18 -35 41 -52 50 -18 9 -26 18 -19 20 6 3
12 12 11 21 0 11 -2 12 -6 5 -6 -17 -23 -17 -23 0 0 24 -44 54 -85 59 -25 4
-105 41 -215 103 -96 54 -210 117 -254 141 -43 24 -83 44 -88 44 -5 0 -6 5 -3
10 4 6 3 9 -2 8 -4 -1 -18 2 -31 6 -16 5 -21 13 -17 26 4 12 -1 23 -12 30 -15
9 -14 10 7 4 14 -4 32 -9 40 -12 8 -3 4 5 -8 18 -13 14 -18 26 -12 28 17 6 11
19 -10 25 -27 7 -25 25 2 29 36 5 33 34 -8 70 -21 18 -41 32 -46 31 -4 -2 -10
9 -13 25 -4 15 -10 34 -16 42 -22 36 -21 43 11 72 38 33 35 40 -35 76 -108 55
-129 61 -147 45 -12 -10 -16 -24 -12 -39 6 -22 4 -23 -27 -14 -19 6 -41 7 -51
4 -10 -3 -21 3 -28 16 -6 11 -17 20 -25 20 -8 0 -12 6 -9 14 3 9 -4 13 -23 14
-39 1 -63 5 -63 9 0 2 7 20 15 40 18 42 10 58 -12 26 -18 -26 -33 -30 -33 -8
0 8 -7 15 -15 15 -17 0 -20 16 -5 25 14 9 12 42 -5 75 -9 17 -11 31 -5 35 5 3
15 -6 23 -21 l14 -26 34 28 c67 56 114 90 152 107 44 21 48 31 9 22 -30 -6
-136 27 -148 46 -14 23 19 39 80 39 47 1 57 3 43 11 -9 6 -14 15 -11 21 5 8 1
9 -12 4 -15 -6 -17 -5 -7 5 14 14 72 21 88 11 5 -3 34 -7 63 -7 29 -1 58 -7
64 -13 9 -9 7 -12 -8 -12 -14 -1 -11 -5 14 -18 50 -27 183 -153 232 -221 l44
-60 17 37 c9 20 47 73 84 117 68 83 252 265 267 265 4 0 8 3 8 8 0 4 20 20 45
35 41 26 43 30 33 53 -6 13 -17 24 -24 24 -6 0 -14 7 -18 15 -3 8 -13 15 -21
15 -10 0 -13 -5 -9 -12 4 -7 -8 2 -27 21 -28 28 -34 42 -36 79 l-1 46 19 -25
c11 -13 17 -32 15 -41 -2 -11 2 -18 10 -18 20 0 8 49 -20 77 -25 25 -76 41
-76 23 0 -6 5 -8 10 -5 6 3 10 -3 10 -14 0 -12 5 -21 10 -21 6 0 10 -7 10 -15
0 -14 -3 -14 -30 0 -17 9 -30 21 -29 28 1 7 0 41 -1 77 -3 64 -3 63 -11 -30
-5 -62 -4 -108 3 -132 8 -28 8 -41 -1 -52 -10 -11 -9 -16 5 -24 20 -11 3 -25
-20 -16 -11 4 -14 13 -10 30 5 19 3 23 -10 18 -9 -3 -13 -10 -10 -15 3 -5 -2
-6 -10 -3 -8 3 -29 -4 -45 -15 -16 -12 -62 -32 -102 -45 -39 -13 -66 -25 -59
-28 7 -2 -4 -5 -26 -5 -73 -3 -99 -8 -111 -23 -9 -11 -12 -12 -13 -2 0 7 -6
12 -12 11 -34 -4 -41 0 -27 19 13 16 13 16 -7 0 -25 -22 -45 -23 -38 -3 3 8
11 13 17 12 21 -4 25 72 7 139 l-18 66 46 41 c26 23 56 51 67 62 12 11 46 41
76 66 89 76 133 119 123 119 -5 0 -54 -22 -109 -50 -87 -43 -146 -63 -351
-115 -7 -2 -9 -18 -5 -47 9 -57 4 -78 -20 -78 -10 0 -18 -3 -17 -7 0 -5 -4
-19 -10 -33 l-11 -25 -1 30 c-1 27 -2 28 -10 9 -12 -31 -27 -37 -39 -17 -9 16
-10 15 -8 -7 2 -21 -3 -26 -25 -28 -22 -3 -28 -9 -28 -27 0 -16 -5 -23 -13
-19 -8 3 -21 -11 -33 -33 -12 -21 -37 -67 -57 -103 -19 -36 -68 -162 -107
-280 -59 -175 -110 -311 -125 -328 -1 -1 -9 0 -18 4 -11 4 -14 16 -12 40 2 19
-1 37 -6 40 -5 3 -9 -1 -9 -9 0 -8 -7 -20 -16 -28 -13 -11 -19 -10 -37 1 -12
7 -51 29 -87 48 -146 77 -141 73 -134 107 9 42 32 85 63 119 24 26 24 28 3 15
-27 -17 -55 -59 -72 -111 -6 -21 -16 -38 -21 -38 -10 0 -299 162 -340 191
l-27 19 -11 -43 c-6 -24 -33 -78 -61 -120 -27 -43 -52 -90 -55 -107 -18 -100
-113 -190 -203 -190 -43 0 -37 28 9 40 51 14 57 28 24 56 -29 24 -55 31 -55
15 0 -5 -7 -17 -16 -25 -18 -19 -47 -7 -77 31 -10 13 -23 20 -29 17 -7 -5 -8
-2 -3 6 5 8 2 17 -7 24 -8 6 -17 19 -21 29 -4 10 -11 15 -17 12 -5 -3 -10 3
-10 15 0 12 -9 24 -24 30 -13 5 -30 22 -37 39 -7 16 -16 28 -20 25 -9 -5 -95
96 -91 108 1 5 -5 11 -13 14 -11 5 -12 10 -4 26 6 12 7 18 1 14 -29 -18 -53
96 -33 155 16 46 61 93 127 134 l56 33 -33 18 c-40 20 -549 325 -632 378 -38
24 -64 50 -77 76 -20 39 -25 42 -85 44 -11 1 -36 11 -55 23 -30 18 -131 54
-149 53 -3 -1 -23 -7 -44 -14z m34 -26 c-55 -25 -73 -25 -42 0 13 11 37 20 55
20 31 0 31 -1 -13 -20z m33 -54 c-3 -8 -13 -17 -22 -21 -13 -5 -13 -2 3 15 21
24 26 25 19 6z m86 -4 c0 -9 -55 -52 -65 -52 -3 0 -4 4 -1 9 4 5 1 11 -6 13
-7 3 0 12 17 20 34 18 55 22 55 10z m-11 -71 c-12 -17 -24 -29 -27 -27 -2 3 6
18 19 35 12 17 24 29 27 27 2 -3 -6 -18 -19 -35z m64 -32 c-9 -9 -12 -7 -10 9
1 14 5 18 11 12 7 -7 6 -14 -1 -21z m239 -116 c28 -16 59 -32 69 -38 11 -5 19
-14 19 -20 0 -5 4 -5 8 2 8 12 104 -42 165 -93 35 -30 26 -32 -12 -3 -17 13
-34 18 -42 14 -7 -5 -10 -4 -5 3 3 6 2 13 -4 17 -5 3 -10 1 -10 -6 0 -8 -5 -7
-17 2 -9 8 -14 9 -10 3 4 -6 38 -31 77 -54 39 -24 68 -45 66 -47 -6 -6 -255
124 -276 144 -13 12 -13 13 5 7 11 -4 -8 15 -42 41 -35 26 -63 49 -63 51 0 10
25 2 72 -23z m2295 -266 c1 -12 4 -30 5 -39 2 -9 -1 -16 -6 -15 -10 2 -18 77
-8 77 4 0 8 -10 9 -23z m884 16 c5 -52 4 -59 -14 -58 -26 2 -37 25 -24 47 12
18 36 25 38 11z m-843 -39 c1 -15 -3 -24 -9 -22 -6 2 -10 7 -10 11 1 4 1 14 1
22 0 26 16 16 18 -11z m786 -9 c4 -11 -3 -19 -21 -26 -33 -12 -39 -6 -16 20
21 25 29 26 37 6z m-121 -23 c-26 -4 -31 -27 -8 -36 9 -3 20 4 28 20 11 22 15
23 31 11 23 -17 13 -37 -17 -37 -12 0 -28 -9 -35 -20 -7 -12 -17 -18 -22 -15
-5 3 -11 1 -15 -5 -9 -15 -25 -12 -25 5 0 8 7 15 15 15 20 0 19 29 -1 37 -11
4 -22 -1 -30 -12 -11 -14 -17 -16 -26 -7 -8 8 -4 14 18 21 16 6 40 17 54 24
14 8 32 11 40 8 11 -4 9 -7 -7 -9z m-747 -29 c-11 -11 -19 6 -11 24 8 17 8 17
12 0 3 -10 2 -21 -1 -24z m120 11 c18 -15 18 -15 -6 -10 -14 3 -31 6 -37 6 -7
0 -13 5 -13 10 0 15 34 12 56 -6z m854 2 c0 -8 -4 -18 -10 -21 -5 -3 -10 3
-10 14 0 12 5 21 10 21 6 0 10 -6 10 -14z m-1000 -37 c0 -5 -7 -9 -15 -9 -15
0 -20 12 -9 23 8 8 24 -1 24 -14z m957 8 c-3 -7 -10 -11 -16 -9 -6 1 -11 -6
-11 -15 -1 -17 -1 -17 -11 0 -13 22 -6 32 21 34 13 1 20 -3 17 -10z m-761 -5
c11 -7 34 -45 34 -56 0 -3 -18 -6 -39 -6 -42 0 -57 17 -46 51 6 19 31 25 51
11z m425 -22 c12 -34 21 -37 39 -15 16 19 40 20 40 1 0 -17 -60 -28 -77 -14
-7 5 -17 7 -23 3 -11 -7 -12 0 -4 33 8 29 13 28 25 -8z m266 -14 c-1 -33 -2
-34 -15 -15 -11 16 -11 23 -2 34 17 21 18 19 17 -19z m-487 -12 c0 -13 -29
-23 -47 -17 -7 3 -13 13 -13 23 0 10 6 20 13 23 15 5 47 -14 47 -29z m-405
-23 c5 -24 4 -31 -4 -27 -6 4 -9 11 -6 16 6 10 -20 32 -28 24 -3 -3 -11 -3
-18 1 -8 6 -4 12 12 21 28 15 35 10 44 -35z m83 6 l-2 -43 -28 13 c-35 18 -43
32 -29 46 8 8 11 8 11 -1 0 -7 5 -12 10 -12 6 0 10 9 10 20 0 11 7 20 15 20
11 0 14 -11 13 -43z m222 39 c0 -2 3 -11 6 -20 5 -13 -1 -16 -25 -16 -29 0
-41 16 -24 33 7 8 43 10 43 3z m170 -21 c0 -16 -27 -28 -36 -14 -7 12 15 41
27 33 5 -3 9 -11 9 -19z m70 11 c0 -17 -14 -29 -23 -20 -8 8 3 34 14 34 5 0 9
-6 9 -14z m298 -33 c5 -18 -10 -16 -34 2 -18 15 -18 15 5 13 14 -2 26 -9 29
-15z m-887 -26 c-6 -6 -11 -19 -11 -30 0 -10 -5 -28 -11 -39 -9 -17 -13 -18
-21 -7 -7 11 -11 11 -15 2 -2 -7 -9 -13 -13 -13 -5 0 -3 15 4 33 7 17 16 40
20 51 5 15 9 16 21 6 12 -10 15 -9 15 4 0 10 5 14 11 10 8 -4 8 -9 0 -17z
m849 2 c0 -5 -4 -9 -10 -9 -5 0 -10 7 -10 16 0 8 5 12 10 9 6 -3 10 -10 10
-16z m-40 -13 c0 -19 -5 -24 -24 -22 -19 1 -22 4 -15 18 7 13 18 21 37 27 1 1
2 -10 2 -23z m-362 -20 c3 -12 -1 -17 -10 -14 -7 3 -15 13 -16 22 -3 12 1 17
10 14 7 -3 15 -13 16 -22z m72 14 c0 -5 -5 -12 -10 -15 -6 -4 -9 -22 -6 -41 5
-29 3 -34 -14 -34 -11 0 -20 5 -20 10 0 6 -9 10 -21 10 -11 0 -17 5 -14 10 4
6 9 8 13 6 4 -2 16 2 27 10 19 14 19 16 3 25 -27 15 -22 26 12 27 17 0 30 -3
30 -8z m63 0 c6 0 3 -8 -6 -17 -16 -16 -19 -16 -27 -3 -14 22 -12 33 6 26 9
-3 21 -6 27 -6z m75 -35 c1 -35 -2 -45 -14 -45 -12 0 -15 7 -12 30 3 17 1 33
-4 36 -15 9 -8 24 11 24 15 0 19 -8 19 -45z m82 16 c0 -24 -18 -37 -32 -23 -8
8 -7 16 2 27 17 21 30 19 30 -4z m-150 -50 c0 -10 -7 -22 -16 -25 -23 -9 -24
-8 -24 19 0 18 5 25 20 25 13 0 20 -7 20 -19z m181 -29 c-6 -2 -8 -9 -5 -15 5
-8 2 -8 -7 1 -17 16 -30 15 -23 -2 3 -8 0 -17 -7 -22 -7 -4 -10 -3 -6 3 4 6 0
13 -8 17 -10 4 -15 -1 -15 -14 0 -24 -9 -25 -36 -6 -18 14 -16 16 29 36 26 12
52 18 57 15 6 -3 13 2 17 12 7 17 8 17 11 -2 3 -10 -1 -21 -7 -23z m-148 -49
c-19 -29 -23 -29 -23 1 0 18 5 24 19 23 17 -1 18 -3 4 -24z m-536 -5 c-3 -36
-38 -67 -64 -57 -47 17 -18 76 31 63 16 -4 26 -2 26 5 0 6 2 11 4 11 3 0 4
-10 3 -22z m503 3 c0 -11 3 -28 6 -38 5 -15 4 -15 -5 -3 -7 10 -11 11 -11 3 0
-7 -4 -13 -9 -13 -9 0 -12 49 -4 63 8 14 23 7 23 -12z m90 -16 c7 -9 10 -18 7
-22 -8 -7 -37 15 -37 28 0 14 16 11 30 -6z m-555 -5 c3 -5 1 -10 -4 -10 -6 0
-11 5 -11 10 0 6 2 10 4 10 3 0 8 -4 11 -10z m515 -31 c0 -8 -51 -31 -57 -25
-2 2 6 15 19 28 20 20 37 19 38 -3z m-695 1 c3 -5 1 -10 -4 -10 -6 0 -11 5
-11 10 0 6 2 10 4 10 3 0 8 -4 11 -10z m25 -122 c0 -5 -7 -25 -16 -46 -13 -31
-17 -34 -24 -21 -13 22 6 76 25 76 8 0 15 -4 15 -9z m7 -99 c-4 -14 1 -22 15
-28 15 -5 18 -10 9 -15 -7 -5 -20 1 -31 14 -15 17 -16 25 -7 36 17 19 20 17
14 -7z m-52 -6 c-4 -41 -31 -116 -42 -120 -7 -3 -13 -11 -13 -19 0 -8 -6 -13
-12 -11 -7 1 -12 -4 -10 -11 1 -8 -2 -11 -8 -7 -15 9 -12 26 9 65 10 19 23 52
30 72 7 20 20 39 29 41 9 3 18 5 18 6 1 0 0 -7 -1 -16z m165 -79 c0 -8 -4 -14
-10 -14 -5 0 -10 9 -10 21 0 11 5 17 10 14 6 -3 10 -13 10 -21z m215 -17 c0
-39 -19 -38 -23 2 -3 24 0 32 10 29 7 -3 13 -17 13 -31z m-167 -5 c6 -18 -15
-14 -22 4 -4 10 -1 14 6 12 6 -2 14 -10 16 -16z m242 -29 c0 -9 -6 -7 -20 4
-11 10 -20 21 -20 25 0 5 9 3 20 -4 11 -7 20 -18 20 -25z m-270 -28 c12 -14
10 -20 -13 -41 -14 -13 -33 -24 -40 -24 -21 0 -40 27 -31 42 4 7 -2 4 -14 -6
-21 -18 -22 -18 -22 -1 0 11 12 31 26 46 25 26 29 27 54 14 14 -7 33 -21 40
-30z m97 9 c2 -7 -6 -10 -22 -7 -14 3 -25 10 -25 15 0 13 43 6 47 -8z m153 -6
c-1 -17 -59 -86 -60 -70 0 15 42 82 53 82 4 0 7 -6 7 -12z m-83 -38 c3 -46
-13 -54 -19 -10 -3 22 6 51 17 50 0 0 1 -18 2 -40z m-102 10 c-3 -5 -12 -10
-18 -10 -7 0 -6 4 3 10 19 12 23 12 15 0z m64 -28 c-5 -2 -16 2 -25 9 -11 9
-12 14 -3 20 8 4 18 1 25 -9 7 -10 9 -18 3 -20z m-1443 -7 c10 -9 13 -23 9
-37 -5 -18 -4 -20 4 -8 9 13 11 13 11 -2 0 -26 -32 -39 -61 -25 -29 15 -36 49
-14 71 20 20 32 20 51 1z m1364 -17 c0 -17 -20 -17 -29 1 -16 29 -14 33 9 19
11 -7 20 -16 20 -20z m-1442 -53 c-3 -17 -11 -20 -48 -20 -44 0 -45 1 -48 34
-3 31 -2 33 22 29 13 -3 31 -1 38 3 17 11 40 -19 36 -46z m1719 23 c-3 -8 -6
-5 -6 6 -1 11 2 17 5 13 3 -3 4 -12 1 -19z m-302 -58 c4 -6 -5 -5 -19 2 -14 6
-26 15 -26 20 0 10 36 -7 45 -22z m-95 -48 c36 -21 81 -44 100 -52 19 -8 106
-52 193 -97 87 -46 161 -83 164 -83 13 0 134 -72 130 -77 -3 -2 -20 3 -39 12
-59 30 -15 -1 53 -38 36 -19 97 -55 137 -81 40 -25 77 -46 82 -46 6 0 10 -4
10 -10 0 -15 -13 -12 -85 20 -83 37 -101 38 -51 3 34 -25 36 -28 17 -31 -24
-4 -279 130 -411 216 -105 69 -113 76 -77 70 15 -3 27 -4 27 -2 0 2 -33 22
-72 45 -86 49 -83 47 -75 55 3 4 30 -5 59 -20 29 -15 44 -19 33 -10 -11 9 -43
27 -71 39 -58 27 -214 125 -199 125 6 0 39 -17 75 -38z m-1409 -25 c-10 -9
-11 -8 -5 6 3 10 9 15 12 12 3 -3 0 -11 -7 -18z m159 -6 c0 -4 -19 -6 -42 -5
-57 4 -59 5 -18 13 36 7 60 4 60 -8z m964 4 c6 -17 -2 -45 -14 -45 -4 0 -7 13
-6 30 1 32 10 39 20 15z m561 6 c-3 -6 3 -15 14 -20 28 -15 38 -14 16 2 -12 9
-14 16 -7 21 6 3 21 -4 33 -16 12 -13 19 -17 15 -10 -8 14 -5 15 18 6 21 -8
21 -60 0 -68 -8 -3 -13 -2 -10 3 3 5 -6 12 -20 15 -14 4 -35 16 -47 26 -11 11
-27 20 -35 20 -12 0 -12 3 -2 15 14 16 35 21 25 6z m-247 -178 c34 -19 62 -39
62 -44 0 -6 4 -8 9 -5 10 6 139 -72 199 -121 23 -19 39 -39 35 -45 -4 -8 0 -9
13 -4 10 4 15 4 11 0 -4 -4 0 -16 10 -26 9 -10 13 -18 9 -18 -4 0 -1 -10 6
-22 26 -47 37 -95 44 -183 5 -73 3 -97 -9 -122 -9 -17 -14 -33 -10 -36 8 -9
-26 -77 -38 -77 -6 0 -8 -4 -5 -8 3 -5 -15 -36 -39 -70 -52 -72 -71 -78 -204
-69 -87 6 -361 66 -361 79 0 4 21 1 48 -7 26 -8 48 -15 50 -15 1 0 2 7 2 15 0
9 11 26 23 38 51 47 60 98 26 141 -24 30 -39 33 -40 9 0 -11 -3 -13 -6 -5 -3
7 14 31 37 53 41 40 42 43 37 92 -3 39 -10 56 -31 72 -21 16 -26 29 -26 63 0
33 -6 48 -28 69 -38 36 -47 75 -27 113 20 38 21 150 1 150 -12 0 -17 15 -29
87 -4 20 2 18 82 -24 47 -25 114 -61 149 -80z m-341 61 c-3 -3 -12 -4 -19 -1
-8 3 -5 6 6 6 11 1 17 -2 13 -5z m-30 -96 c-3 -8 -6 -5 -6 6 -1 11 2 17 5 13
3 -3 4 -12 1 -19z m2 -380 c-7 -163 -24 -288 -40 -288 -11 0 -11 62 1 175 5
50 12 119 15 155 18 212 33 186 24 -42z m1088 116 c-3 -3 -12 -4 -19 -1 -8 3
-5 6 6 6 11 1 17 -2 13 -5z m-198 -109 c0 -5 -13 6 -29 25 -17 19 -30 39 -30
44 0 6 13 -5 30 -24 16 -19 29 -39 29 -45z m331 65 c0 -5 -4 -10 -10 -10 -5 0
-10 5 -10 10 0 6 5 10 10 10 6 0 10 -4 10 -10z m-1328 -30 c3 -16 1 -30 -4
-30 -4 0 -8 14 -8 30 0 17 2 30 4 30 2 0 6 -13 8 -30z m1518 -40 c0 -5 -7 -10
-15 -10 -8 0 -15 5 -15 10 0 6 7 10 15 10 8 0 15 -4 15 -10z m-1530 -16 c0 -8
-5 -12 -10 -9 -6 4 -8 11 -5 16 9 14 15 11 15 -7z m1182 -8 c10 -7 15 -16 11
-19 -3 -4 2 -7 13 -7 16 0 17 -2 4 -10 -13 -8 -12 -10 3 -10 10 0 16 -4 12
-10 -4 -6 -15 -5 -30 2 -13 6 -22 14 -20 19 3 4 -2 14 -10 22 -27 28 -14 37
17 13z m-1187 -40 c-12 -9 -15 -15 -7 -20 7 -4 12 -12 12 -18 0 -7 -6 -6 -15
2 -20 17 -19 37 2 49 25 13 31 4 8 -13z m980 14 c3 -5 1 -10 -4 -10 -6 0 -11
5 -11 10 0 6 2 10 4 10 3 0 8 -4 11 -10z m668 -26 c11 -11 -3 -24 -18 -18 -8
4 -12 10 -9 15 6 11 18 12 27 3z m-675 -35 c7 -12 11 -23 8 -26 -8 -9 -36 17
-36 33 0 20 13 17 28 -7z m-968 -19 c0 -5 -7 -10 -15 -10 -8 0 -15 5 -15 10 0
6 7 10 15 10 8 0 15 -4 15 -10z m-10 -40 c0 -5 -4 -10 -10 -10 -5 0 -10 5 -10
10 0 6 5 10 10 10 6 0 10 -4 10 -10z m949 -24 c16 -20 -22 -67 -40 -49 -10 10
-10 18 -1 38 13 28 24 31 41 11z m-949 -11 c0 -8 -7 -15 -15 -15 -26 0 -18 20
13 29 1 1 2 -6 2 -14z m0 -50 c0 -8 -7 -15 -15 -15 -9 0 -12 6 -9 15 4 8 10
15 15 15 5 0 9 -7 9 -15z m909 -14 c18 -12 -3 -53 -24 -45 -16 7 -18 14 -9 38
7 18 13 19 33 7z m-906 -58 c-3 -7 -9 -13 -14 -13 -11 0 -12 44 -2 54 9 9 22
-25 16 -41z m865 -22 c15 -9 13 -42 -3 -48 -13 -4 -38 35 -30 47 7 12 16 12
33 1z m-840 -23 c4 -18 -27 -33 -41 -19 -6 6 -4 15 4 25 17 18 33 15 37 -6z
m1548 -4 c-3 -9 -6 -23 -6 -32 0 -10 -3 -13 -10 -6 -11 11 -2 54 12 54 6 0 7
-7 4 -16z m34 -14 c0 -5 -4 -10 -10 -10 -5 0 -10 5 -10 10 0 6 5 10 10 10 6 0
10 -4 10 -10z m-1570 -30 c0 -5 -12 -10 -26 -10 -14 0 -23 4 -19 10 3 6 15 10
26 10 10 0 19 -4 19 -10z m794 1 c3 -5 0 -20 -7 -35 -13 -24 -15 -24 -36 -10
-21 15 -21 17 -5 35 18 20 39 25 48 10z m715 -13 c12 -32 -4 -46 -27 -25 -27
25 -33 21 -15 -11 11 -19 14 -35 8 -48 -8 -17 -9 -16 -12 8 -3 14 -11 32 -19
38 -20 18 -17 40 6 40 11 0 20 5 20 10 0 19 31 10 39 -12z m-1258 -21 c-10 -9
-11 -8 -5 6 3 10 9 15 12 12 3 -3 0 -11 -7 -18z m-231 -2 c0 -9 -9 -15 -25
-15 -29 0 -34 16 -7 23 30 8 32 7 32 -8z m1408 -20 c14 -30 7 -52 -21 -67 -17
-9 -24 -7 -39 12 -23 28 -23 49 0 66 26 20 48 17 60 -11z m-1102 -12 c-10 -10
-19 5 -10 18 6 11 8 11 12 0 2 -7 1 -15 -2 -18z m65 4 c-10 -9 -11 -8 -5 6 3
10 9 15 12 12 3 -3 0 -11 -7 -18z m122 17 c7 -8 -15 -44 -27 -44 -4 0 -3 7 4
15 6 8 9 19 5 25 -7 11 7 14 18 4z m127 -18 c-1 -19 -41 -62 -46 -49 -3 7 -12
9 -20 6 -20 -8 -17 8 8 38 22 26 58 29 58 5z m690 4 c0 -5 -8 -14 -17 -20 -17
-9 -16 -12 7 -31 24 -20 24 -21 5 -35 -30 -22 -50 -16 -68 21 l-17 35 38 19
c42 23 52 25 52 11z m-873 -22 c-3 -8 -6 -5 -6 6 -1 11 2 17 5 13 3 -3 4 -12
1 -19z m278 -28 c-10 -11 -22 -20 -27 -20 -18 0 -20 32 -2 51 16 17 19 18 33
5 13 -14 13 -18 -4 -36z m-1235 29 c0 -5 5 -7 10 -4 6 3 10 2 10 -3 0 -17 -13
-21 -26 -7 -16 16 -18 25 -4 25 6 0 10 -5 10 -11z m520 2 c0 -5 -7 -12 -16
-15 -22 -9 -24 -8 -24 9 0 8 9 15 20 15 11 0 20 -4 20 -9z m1115 -21 c-3 -5
-2 -10 4 -10 5 0 13 6 17 12 8 13 21 -17 23 -53 2 -38 -73 -26 -88 13 -7 18
-4 26 13 35 26 15 39 16 31 3z m-1090 -28 c2 -27 -7 -28 -29 -3 -13 15 -14 20
-4 24 21 9 31 2 33 -21z m70 10 c-3 -3 -11 0 -18 7 -9 10 -8 11 6 5 10 -3 15
-9 12 -12z m930 -2 c8 -13 -5 -13 -25 0 -13 8 -13 10 2 10 9 0 20 -4 23 -10z
m-1535 -15 c0 -17 -2 -18 -24 -9 -23 9 -20 24 4 24 11 0 20 -7 20 -15z m1447
-11 c-9 -9 -28 6 -21 18 4 6 10 6 17 -1 6 -6 8 -13 4 -17z m-271 5 c3 -6 -3
-20 -14 -31 -19 -20 -22 -20 -37 -4 -14 13 -15 19 -5 31 15 18 46 20 56 4z
m821 -32 c7 -24 10 -53 7 -65 -9 -33 26 -102 51 -102 12 0 26 5 32 11 14 14
53 -35 53 -65 -1 -40 -40 -85 -110 -125 -14 -8 -49 -30 -79 -48 -49 -30 -85
-44 -68 -26 13 12 -15 33 -45 33 -16 0 -57 -9 -91 -20 -66 -21 -220 -40 -237
-30 -6 4 29 13 77 20 57 8 92 18 100 29 10 13 7 17 -15 22 l-27 7 28 1 c16 0
37 6 48 11 13 7 19 7 19 0 0 -13 77 -13 85 0 3 6 -2 10 -12 11 -10 1 2 7 27
13 25 7 59 11 76 8 19 -2 45 4 70 17 49 26 89 60 80 68 -3 3 -14 -1 -24 -10
-10 -10 -24 -17 -30 -17 -7 0 -12 -4 -12 -10 0 -5 -7 -10 -15 -10 -26 0 -17
15 25 40 22 14 40 28 40 33 0 12 -12 8 -44 -17 -53 -40 -129 -74 -181 -80 -45
-5 -47 -5 -25 7 58 28 78 49 88 88 12 49 2 93 -30 119 -28 23 -38 25 -38 5 0
-8 3 -15 8 -15 4 0 14 -13 23 -28 14 -26 14 -29 -8 -52 -14 -14 -23 -20 -22
-15 6 34 -5 69 -29 96 -27 30 -31 31 -75 25 -26 -4 -54 -15 -63 -24 -15 -15
-16 -14 -10 6 7 20 4 22 -36 21 -24 -1 -35 -3 -25 -6 9 -2 17 -11 17 -20 0
-12 -7 -14 -29 -10 -37 8 -60 -23 -56 -74 l4 -34 -19 40 c-32 68 -43 76 -98
77 -60 0 -86 -13 -113 -55 -18 -27 -19 -28 -13 -7 10 35 32 67 52 75 9 3 73
11 142 16 69 5 139 12 155 15 17 3 66 9 110 14 94 11 180 36 214 62 13 10 27
18 30 18 4 0 12 -19 18 -43z m-610 3 c6 -16 10 -30 8 -30 -10 0 -35 33 -35 46
0 24 15 15 27 -16z m123 5 c0 -13 -21 -25 -46 -25 -22 0 -16 24 9 36 25 12 37
9 37 -11z m-1560 -15 c0 -31 -16 -41 -26 -15 -5 13 11 45 22 45 2 0 4 -13 4
-30z m693 -27 c36 -34 17 -42 -28 -12 -25 17 -45 33 -45 36 0 10 55 -8 73 -24z
m427 -1 c0 -15 -32 -52 -45 -52 -23 0 -28 20 -9 41 17 19 54 27 54 11z m-370
-37 c0 -14 5 -25 10 -25 6 0 10 7 10 15 0 21 13 19 35 -5 24 -26 16 -33 -29
-25 -40 8 -61 28 -52 50 9 24 26 17 26 -10z m-790 -9 c0 -3 -4 -8 -10 -11 -5
-3 -10 -1 -10 4 0 6 5 11 10 11 6 0 10 -2 10 -4z m960 -6 c13 -8 12 -11 -5
-24 -31 -24 -55 -20 -55 9 0 19 5 25 23 25 12 0 29 -5 37 -10z m90 2 c0 -5
-11 -14 -25 -20 -14 -6 -25 -10 -25 -8 0 3 -3 11 -6 20 -5 13 1 16 25 16 17 0
31 -4 31 -8z m805 -38 c28 -31 32 -75 10 -114 -14 -24 -14 -24 -15 25 -2 56
-18 111 -20 65 0 -22 -2 -23 -11 -7 -16 27 -29 20 -30 -15 0 -18 -4 -41 -8
-51 -6 -18 -8 -18 -21 -2 -17 21 -18 88 -1 109 21 25 68 20 96 -10z m-129 -31
c-3 -20 1 -54 9 -77 12 -35 12 -38 0 -21 -8 11 -18 25 -22 30 -5 6 -7 18 -5
29 2 10 0 16 -5 13 -6 -4 -5 9 1 28 14 46 27 45 22 -2z m-997 -5 c-8 -14 -14
-18 -17 -10 -4 13 17 46 25 38 3 -2 -1 -15 -8 -28z m799 -6 c2 -8 -2 -10 -14
-5 -11 4 -22 0 -30 -12 -16 -21 -19 -75 -5 -75 24 0 41 14 41 35 0 13 5 27 10
30 16 10 12 -51 -4 -64 -8 -7 -27 -11 -43 -9 -25 3 -28 7 -31 44 -2 29 2 47
14 58 18 19 55 18 62 -2z m-405 -20 c29 -32 58 -110 64 -174 7 -76 -23 -187
-62 -233 l-26 -30 14 30 c8 17 12 36 9 44 -2 8 0 11 6 7 11 -7 32 45 31 78 0
21 -1 21 -9 1 -9 -20 -9 -20 -9 0 -1 12 -6 26 -13 33 -9 9 -8 12 6 12 15 0 17
6 13 43 -13 98 -40 165 -74 183 -13 6 -20 14 -16 17 13 13 50 7 66 -11z m-413
-11 c0 -6 -4 -13 -10 -16 -5 -3 -10 -11 -10 -17 0 -7 4 -7 13 1 21 17 28 1 11
-24 -17 -27 -56 -24 -47 3 15 48 43 82 43 53z m225 -31 c3 -5 1 -10 -4 -10 -6
0 -11 5 -11 10 0 6 2 10 4 10 3 0 8 -4 11 -10z m35 -14 c0 -3 -4 -8 -10 -11
-5 -3 -10 -1 -10 4 0 6 5 11 10 11 6 0 10 -2 10 -4z m80 -5 c0 -5 7 -11 16
-13 14 -2 12 -6 -6 -23 l-23 -20 7 23 c5 13 3 22 -3 22 -6 0 -11 5 -11 10 0 6
5 10 10 10 6 0 10 -4 10 -9z m-45 -21 c-3 -5 -14 -10 -23 -10 -15 0 -15 2 -2
10 20 13 33 13 25 0z m595 -8 c0 -4 -5 -13 -12 -20 -18 -18 -8 -20 57 -12 33
4 74 5 90 3 17 -2 38 -5 47 -6 74 -6 -156 -36 -262 -34 l-45 1 36 9 c21 6 43
21 55 38 18 28 34 37 34 21z m-900 -28 c0 -8 -7 -14 -15 -14 -8 0 -15 -4 -15
-10 0 -5 7 -10 15 -10 21 0 19 -20 -2 -20 -17 -1 -16 -2 1 -15 16 -12 17 -17
6 -30 -7 -8 -19 -15 -27 -15 -11 0 -14 14 -12 63 2 34 4 65 6 69 6 11 43 -4
43 -18z m204 -13 c23 -25 19 -109 -6 -125 -32 -19 -53 4 -56 63 -4 75 25 103
62 62z m183 2 c-9 -9 -19 -14 -23 -11 -10 10 6 28 24 28 15 0 15 -1 -1 -17z
m-350 -15 c-3 -8 -6 -5 -6 6 -1 11 2 17 5 13 3 -3 4 -12 1 -19z m-1003 -20
c-13 -24 -37 -48 -47 -48 -6 0 2 14 18 30 31 32 41 38 29 18z m1371 2 c-11 -5
-29 -9 -40 -9 -17 -1 -17 1 -5 9 8 5 26 9 40 9 23 0 23 -1 5 -9z m185 0 c0 -5
-4 -10 -10 -10 -5 0 -10 5 -10 10 0 6 5 10 10 10 6 0 10 -4 10 -10z m-200 -34
c0 -3 -4 -8 -10 -11 -5 -3 -10 -1 -10 4 0 6 5 11 10 11 6 0 10 -2 10 -4z m40
-6 c0 -5 -5 -10 -11 -10 -5 0 -7 5 -4 10 3 6 8 10 11 10 2 0 4 -4 4 -10z m560
1 c0 -9 -81 -21 -149 -21 -66 0 -43 11 41 20 106 11 108 11 108 1z m-2002 -43
c2 -11 -5 -18 -20 -20 -15 -2 -23 -9 -22 -20 1 -10 -14 -30 -32 -45 -19 -16
-56 -47 -82 -71 -91 -82 -231 -166 -249 -148 -6 6 36 45 50 46 14 0 131 99
229 193 89 85 119 100 126 65z m1392 12 c0 -5 -2 -10 -4 -10 -3 0 -8 5 -11 10
-3 6 -1 10 4 10 6 0 11 -4 11 -10z m868 -12 c-3 -7 -15 -15 -27 -16 -14 -2
-21 0 -17 7 4 5 14 7 23 4 11 -4 14 -3 9 5 -4 7 -2 12 4 12 7 0 10 -6 8 -12z
m-1248 -8 c0 -5 -4 -10 -10 -10 -5 0 -10 5 -10 10 0 6 5 10 10 10 6 0 10 -4
10 -10z m413 -41 c-8 -30 -23 -33 -23 -5 0 19 -7 26 -30 31 -16 4 -30 10 -30
14 0 5 20 2 44 -6 35 -12 43 -18 39 -34z m-456 -6 c-3 -10 -5 -2 -5 17 0 19 2
27 5 18 2 -10 2 -26 0 -35z m39 0 c-10 -10 -19 5 -10 18 6 11 8 11 12 0 2 -7
1 -15 -2 -18z m44 -26 c-14 -12 -30 -33 -37 -47 -11 -23 -12 -23 -12 -4 -1 11
11 31 25 45 16 15 23 30 20 43 -5 18 -4 18 12 2 16 -16 16 -19 -8 -39z m350
-16 c0 -18 -17 -20 -36 -6 -18 14 -18 14 9 15 15 0 27 -4 27 -9z m-290 -9 c0
-4 -16 -23 -35 -42 -42 -41 -46 -32 -7 16 26 33 42 43 42 26z m249 -42 c34
-43 29 -52 -11 -20 -25 19 -44 60 -29 60 4 0 22 -18 40 -40z m61 14 c0 -8 -5
-12 -10 -9 -6 4 -8 11 -5 16 9 14 15 11 15 -7z m-116 -3 c4 -5 0 -12 -6 -15
-10 -3 -8 -9 5 -19 9 -8 17 -19 17 -26 0 -6 4 -11 9 -11 5 0 12 -7 15 -16 4
-9 -13 0 -36 21 -26 25 -43 34 -46 26 -2 -7 5 -19 17 -27 12 -8 21 -22 21 -31
0 -10 -12 -3 -35 21 -42 44 -79 47 -81 6 -1 -42 -4 -50 -15 -50 -13 0 -2 73
12 78 14 6 10 22 -5 22 -8 0 -18 5 -22 12 -5 8 -2 9 12 4 48 -19 131 -16 119
5 -4 5 -2 9 4 9 5 0 12 -4 15 -9z m-928 -61 c-14 -17 -26 -29 -26 -25 0 12 42
66 47 61 3 -3 -6 -19 -21 -36z m289 -15 c7 -11 16 -66 19 -122 4 -56 13 -127
21 -158 8 -31 15 -76 15 -100 0 -32 4 -45 14 -45 8 0 18 -10 22 -22 8 -27 39
-69 46 -63 2 3 -2 50 -9 106 -12 86 -12 119 0 222 l14 122 8 -85 c9 -89 10
-89 20 3 4 31 10 55 14 53 14 -9 40 -112 51 -204 7 -61 19 -111 37 -148 28
-59 49 -66 47 -15 -1 17 2 28 7 25 5 -3 9 -12 9 -20 0 -17 17 -19 22 -2 3 9 9
8 21 -4 20 -19 22 -32 5 -22 -8 5 -7 1 2 -10 8 -11 16 -14 18 -7 2 6 10 11 18
11 17 0 19 -31 3 -47 -9 -9 -8 -18 4 -37 18 -26 13 -56 -8 -56 -20 0 -37 27
-30 49 4 14 -1 24 -20 37 -15 10 -25 26 -25 41 0 13 -4 21 -10 18 -32 -20 33
-211 115 -340 39 -59 80 -181 65 -190 -4 -3 -10 2 -14 10 -3 8 -10 15 -16 15
-15 0 -12 -29 5 -46 8 -9 15 -25 15 -36 0 -14 5 -18 16 -14 12 5 15 2 10 -10
-3 -8 -1 -24 4 -35 7 -13 7 -19 0 -19 -5 0 -10 7 -10 15 0 8 -4 15 -9 15 -5 0
-11 8 -15 18 -6 18 -27 54 -37 62 -3 3 -12 16 -19 30 -7 14 -26 41 -41 60 -28
36 -71 108 -88 147 -5 11 -15 24 -21 28 -20 12 -1 -35 41 -103 21 -35 39 -67
39 -71 0 -4 17 -32 39 -62 35 -50 121 -207 121 -222 0 -11 -38 -8 -46 4 -3 6
-1 15 6 19 7 4 9 13 6 19 -10 15 -26 14 -26 -3 0 -9 -8 -12 -26 -8 -18 3 -22
7 -13 13 18 11 -6 39 -35 39 -23 1 -117 87 -231 212 -101 110 -121 137 -145
188 -4 8 -15 29 -24 47 -9 17 -16 41 -16 53 0 24 -28 144 -41 175 -21 49 -32
117 -34 205 -2 68 -1 82 5 50 4 -25 8 -38 9 -30 3 20 29 -49 30 -80 1 -29 17
-57 26 -48 4 3 0 50 -9 103 -11 71 -12 103 -5 117 6 11 8 37 5 57 -4 27 -3 31
4 16 7 -14 9 4 6 60 -3 44 -2 71 1 60 3 -10 11 -28 18 -40z m468 14 c-10 -16
-21 -29 -26 -29 -5 0 -7 3 -5 8 24 49 32 61 40 56 4 -3 1 -19 -9 -35z m447 25
c0 -8 -5 -12 -10 -9 -6 4 -8 11 -5 16 9 14 15 11 15 -7z m-335 -64 c3 -6 -1
-13 -10 -16 -19 -8 -30 0 -20 15 8 14 22 14 30 1z m-1685 -30 c-14 -11 -32
-19 -40 -19 -9 0 -6 4 6 9 12 5 25 13 29 19 3 6 12 11 18 11 7 0 1 -9 -13 -20z
m1750 0 c0 -5 -4 -10 -10 -10 -5 0 -10 5 -10 10 0 6 5 10 10 10 6 0 10 -4 10
-10z m183 -50 c-3 -3 -8 1 -10 8 -3 6 -9 10 -14 6 -5 -3 -9 5 -9 17 0 21 0 21
19 -2 11 -13 17 -26 14 -29z m-1993 5 c-7 -8 -17 -12 -22 -9 -6 4 -5 10 3 15
22 14 33 10 19 -6z m1560 1 c15 -19 9 -58 -9 -64 -9 -3 -12 0 -9 9 3 8 2 23
-3 34 -6 16 -8 14 -8 -12 -1 -36 -15 -43 -30 -15 -7 14 -6 25 5 40 18 25 37
28 54 8z m-1485 -16 c-3 -5 -13 -10 -21 -10 -8 0 -12 5 -9 10 3 6 13 10 21 10
8 0 12 -4 9 -10z m1885 -30 c39 -39 -17 -80 -62 -46 -24 18 -23 32 4 50 29 20
34 20 58 -4z m-454 -35 c3 -8 -1 -24 -10 -37 -16 -22 -16 -22 -16 15 0 37 16
50 26 22z m418 -81 c32 -8 35 -42 7 -68 -22 -20 -25 -17 -51 61 -19 55 -19 57
-1 36 10 -12 30 -25 45 -29z m-373 14 c0 -10 2 -10 6 0 9 23 31 12 35 -18 4
-28 2 -30 -28 -30 -38 0 -45 8 -37 38 6 24 22 30 24 10z m-951 -16 c0 -12 -98
-95 -141 -119 -66 -38 -43 -11 36 42 42 27 78 58 81 67 5 18 24 25 24 10z
m1270 -35 c0 -10 -4 -15 -10 -12 -5 3 -10 18 -10 33 0 21 2 24 10 12 5 -8 10
-23 10 -33z m-357 -82 c3 -37 2 -51 -3 -35 -8 25 -13 107 -6 99 2 -2 6 -31 9
-64z m127 35 c14 -11 21 -20 15 -20 -5 0 -21 9 -35 20 -14 11 -20 20 -15 20 6
0 21 -9 35 -20z m-28 -16 l38 -27 -42 -22 c-23 -13 -48 -21 -54 -18 -13 5 -24
36 -24 71 0 31 34 29 82 -4z m68 16 c0 -5 -2 -10 -4 -10 -3 0 -8 5 -11 10 -3
6 -1 10 4 10 6 0 11 -4 11 -10z m140 1 c6 -2 -31 -31 -40 -31 -3 0 -6 8 -6 19
0 16 18 21 46 12z m57 -18 c4 -10 11 -21 17 -25 13 -9 -1 -36 -27 -52 -13 -8
-24 -7 -45 4 -38 22 -38 41 0 67 41 27 47 28 55 6z m-167 -23 c-20 -13 -33
-13 -25 0 3 6 14 10 23 10 15 0 15 -2 2 -10z m48 -46 c30 -21 29 -67 -2 -88
-22 -14 -28 -14 -70 0 -25 9 -49 20 -52 25 -11 18 7 46 39 62 41 20 57 21 85
1z m166 -46 c-3 -4 -9 -8 -15 -8 -5 0 -9 4 -9 8 0 5 7 9 15 9 8 0 12 -4 9 -9z
m-298 -72 c11 -23 10 -24 -7 -13 -11 7 -19 17 -19 24 0 21 14 15 26 -11z m164
10 c0 -2 -8 -10 -17 -17 -16 -13 -17 -12 -4 4 13 16 21 21 21 13z m-1090 -329
c0 -19 -4 -27 -12 -25 -15 5 -22 42 -13 66 5 14 7 14 15 2 6 -8 10 -28 10 -43z
m1290 -98 c0 -10 -4 -19 -9 -19 -12 0 -23 29 -15 41 8 14 24 0 24 -22z m-560
-219 c0 -5 -4 -10 -10 -10 -5 0 -10 5 -10 10 0 6 5 10 10 10 6 0 10 -4 10 -10z
m716 -478 c-18 -16 -18 -16 -6 6 6 13 14 21 18 18 3 -4 -2 -14 -12 -24z m-35
-41 c-10 -17 -58 -37 -68 -28 -4 5 56 45 70 46 4 1 3 -7 -2 -18z m79 -3 c0
-17 -90 -57 -164 -75 -85 -19 -90 -11 -9 16 37 12 75 25 83 28 8 4 20 7 27 9
6 1 22 9 35 18 27 19 28 19 28 4z m-823 -20 c-3 -8 -6 -5 -6 6 -1 11 2 17 5
13 3 -3 4 -12 1 -19z m113 -13 c6 3 8 11 5 16 -10 14 17 9 50 -10 17 -10 30
-26 30 -36 0 -12 14 -25 40 -36 22 -10 35 -18 29 -18 -17 -1 -106 40 -122 55
-7 8 -21 14 -29 14 -19 0 -53 28 -53 44 1 6 9 1 20 -12 11 -13 24 -21 30 -17z
m53 -74 c157 -72 201 -85 297 -89 68 -3 110 0 148 11 29 9 50 12 47 7 -4 -6
-11 -10 -17 -10 -5 0 -24 -6 -41 -14 -56 -25 -128 -37 -176 -30 -144 20 -279
78 -368 158 -59 52 -54 63 10 22 28 -18 74 -43 100 -55z m475 63 c-13 -12
-116 -34 -158 -33 -37 1 -30 4 39 15 47 8 87 16 89 19 3 3 12 5 20 5 9 0 13
-3 10 -6z m-293 -52 c-3 -3 -11 0 -18 7 -9 10 -8 11 6 5 10 -3 15 -9 12 -12z
m42 -8 c-3 -3 -12 -4 -19 -1 -8 3 -5 6 6 6 11 1 17 -2 13 -5z m27 -49 c15 -3
26 -8 24 -10 -8 -8 -118 17 -113 26 3 4 18 4 33 -1 15 -4 40 -11 56 -15z m103
-431 c-3 -3 -12 -4 -19 -1 -8 3 -5 6 6 6 11 1 17 -2 13 -5z m253 -94 c6 -11 8
-20 6 -20 -3 0 -10 9 -16 20 -6 11 -8 20 -6 20 3 0 10 -9 16 -20z"/>
<path d="M15335 5999 c-11 -17 -2 -18 19 -3 17 12 17 14 4 14 -9 0 -20 -5 -23
-11z"/>
<path d="M15621 4856 c2 -2 15 -9 29 -15 24 -11 24 -11 6 3 -16 13 -49 24 -35
12z"/>
<path d="M15070 4940 c-8 -5 -10 -10 -5 -10 6 0 17 5 25 10 8 5 11 10 5 10 -5
0 -17 -5 -25 -10z"/>
<path d="M15038 4118 c5 -5 16 -8 23 -6 8 3 3 7 -10 11 -17 4 -21 3 -13 -5z"/>
<path d="M16105 3580 c-13 -6 -15 -9 -5 -9 8 0 22 4 30 9 18 12 2 12 -25 0z"/>
<path d="M14425 2955 c3 -22 11 -44 17 -50 7 -7 8 2 3 30 -3 22 -11 45 -17 50
-7 7 -8 -2 -3 -30z"/>
<path d="M14450 2865 c0 -8 5 -15 10 -15 6 0 10 7 10 15 0 8 -4 15 -10 15 -5
0 -10 -7 -10 -15z"/>
<path d="M14685 2350 c3 -5 8 -10 11 -10 2 0 4 5 4 10 0 6 -5 10 -11 10 -5 0
-7 -4 -4 -10z"/>
<path d="M14722 2311 c13 -22 38 -36 38 -22 0 5 -11 16 -25 25 -25 17 -25 16
-13 -3z"/>
<path d="M14782 2281 c-11 -7 -11 -9 2 -14 9 -4 16 -13 16 -21 0 -7 7 -16 15
-20 21 -8 19 17 -2 43 -12 14 -23 18 -31 12z"/>
<path d="M14840 2220 c0 -5 5 -10 11 -10 5 0 7 5 4 10 -3 6 -8 10 -11 10 -2 0
-4 -4 -4 -10z"/>
<path d="M14831 3074 c0 -11 3 -14 6 -6 3 7 2 16 -1 19 -3 4 -6 -2 -5 -13z"/>
<path d="M15030 2803 c0 -13 5 -23 10 -23 13 0 13 11 0 30 -8 12 -10 11 -10
-7z"/>
<path d="M14830 6663 c0 -9 40 -36 45 -31 2 2 -8 11 -21 21 -13 10 -24 14 -24
10z"/>
<path d="M14900 6620 c0 -5 9 -10 21 -10 11 0 17 5 14 10 -3 6 -13 10 -21 10
-8 0 -14 -4 -14 -10z"/>
<path d="M17265 6386 c-61 -24 -151 -75 -189 -107 -102 -87 -246 -269 -246
-309 0 -13 1 -13 10 0 5 8 10 12 10 9 0 -18 240 90 240 108 0 7 7 13 15 13 8
0 22 11 30 24 9 13 25 26 36 29 12 3 18 10 15 15 -3 5 7 15 22 23 15 8 49 36
75 64 35 37 47 56 44 73 -2 12 1 22 7 22 6 0 16 8 23 19 10 17 8 19 -19 25
-35 7 -34 7 -73 -8z"/>
<path d="M16140 6170 c0 -5 5 -10 11 -10 5 0 7 5 4 10 -3 6 -8 10 -11 10 -2 0
-4 -4 -4 -10z"/>
<path d="M17171 6129 c-13 -5 -21 -12 -18 -15 3 -3 18 1 34 10 31 17 21 20
-16 5z"/>
<path d="M13702 6074 c-14 -16 -5 -18 17 -5 7 5 9 11 5 14 -5 3 -15 -1 -22 -9z"/>
<path d="M14941 5992 c-130 -133 -176 -185 -154 -173 12 6 43 36 70 67 26 31
74 83 106 115 32 33 55 59 51 59 -4 0 -37 -30 -73 -68z"/>
<path d="M13570 5999 l-35 -30 38 26 c33 24 43 35 34 35 -1 0 -18 -14 -37 -31z"/>
<path d="M13869 6006 c-13 -13 -44 -34 -69 -46 -73 -37 -98 -59 -135 -116 -20
-30 -39 -52 -44 -49 -6 3 -12 1 -16 -5 -9 -15 57 -41 72 -28 9 7 26 1 60 -23
37 -27 56 -50 82 -104 31 -66 84 -125 98 -111 4 4 -3 13 -14 21 -25 17 -53 69
-53 96 0 13 26 34 81 65 111 64 129 108 53 132 -68 21 -114 74 -114 130 0 33
13 48 50 55 l25 4 -26 2 c-16 0 -36 -9 -50 -23z"/>
<path d="M13956 6007 c3 -10 9 -15 12 -12 3 3 0 11 -7 18 -10 9 -11 8 -5 -6z"/>
<path d="M13971 5958 c-2 -48 8 -58 57 -58 54 0 51 9 -4 14 -35 3 -40 7 -45
37 -6 30 -7 31 -8 7z"/>
<path d="M16487 5959 c7 -7 15 -10 18 -7 3 3 -2 9 -12 12 -14 6 -15 5 -6 -5z"/>
<path d="M16535 5910 c3 -5 8 -10 11 -10 2 0 4 5 4 10 0 6 -5 10 -11 10 -5 0
-7 -4 -4 -10z"/>
<path d="M16799 5909 c-1 -8 -1 -27 0 -44 0 -24 -1 -26 -7 -11 -6 14 -11 7
-20 -35 -7 -30 -17 -61 -22 -69 -9 -13 -12 -13 -23 0 -6 8 -21 22 -31 30 -19
15 -19 14 -2 -11 9 -15 19 -51 22 -80 6 -50 39 -119 57 -119 12 0 47 -82 47
-112 0 -26 -14 -39 -22 -20 -7 17 -75 50 -127 62 -175 41 -347 -42 -568 -274
-53 -55 -100 -100 -105 -98 -12 3 7 -32 26 -47 12 -10 14 -9 9 8 -3 12 -1 21
6 21 6 0 28 19 49 42 74 85 166 170 203 189 48 24 160 51 191 45 13 -3 28 -5
34 -5 24 -2 23 -198 -2 -298 -6 -20 5 -16 77 34 154 106 239 209 247 298 4 50
-23 163 -36 150 -3 -2 -18 12 -34 33 -16 20 -25 38 -20 40 5 1 6 23 2 47 -5
33 -3 45 7 49 7 3 18 16 23 28 8 22 9 22 9 -4 1 -16 5 -28 11 -28 6 0 6 -9 0
-25 -12 -32 0 -38 41 -18 45 22 123 28 170 13 54 -18 60 -6 7 14 l-43 16 36
-4 c34 -4 36 -3 34 25 -1 19 2 26 9 20 17 -12 48 -22 42 -13 -3 5 -23 17 -45
27 -22 10 -38 21 -36 25 7 11 -22 20 -42 14 -14 -5 -15 -4 -4 4 11 8 10 12 -5
20 -11 5 -25 7 -33 4 -9 -3 -11 0 -6 8 5 9 4 11 -3 6 -7 -4 -20 -2 -29 3 -14
8 -15 11 -3 11 12 0 11 3 -3 11 -9 5 -22 7 -29 3 -7 -5 -8 -3 -3 6 6 10 4 12
-10 7 -9 -4 -24 -2 -31 4 -11 9 -14 8 -15 -2z m1 -114 c0 -5 -5 -3 -10 5 -5 8
-10 20 -10 25 0 6 5 3 10 -5 5 -8 10 -19 10 -25z m110 25 c-8 -5 -19 -10 -25
-10 -5 0 -3 5 5 10 8 5 20 10 25 10 6 0 3 -5 -5 -10z m43 -97 c-7 -2 -19 -2
-25 0 -7 3 -2 5 12 5 14 0 19 -2 13 -5z"/>
<path d="M16615 5850 c10 -11 20 -18 23 -15 7 6 -18 35 -31 35 -5 0 -2 -9 8
-20z"/>
<path d="M16760 5696 c0 -18 7 -39 15 -46 19 -16 20 -34 1 -27 -10 4 -13 1 -9
-9 3 -7 9 -14 13 -14 13 0 21 33 10 44 -5 5 -10 27 -10 48 0 21 -4 38 -10 38
-5 0 -10 -15 -10 -34z"/>
<path d="M15380 5695 c-31 -18 -16 -18 30 0 23 9 28 14 15 14 -11 0 -31 -6
-45 -14z"/>
<path d="M15295 5650 c-3 -6 1 -7 9 -4 18 7 21 14 7 14 -6 0 -13 -4 -16 -10z"/>
<path d="M15383 5575 c-18 -8 -33 -16 -33 -18 0 -5 82 22 89 29 9 9 -26 2 -56
-11z"/>
<path d="M15451 5576 c10 -9 69 -36 69 -32 0 6 -55 36 -66 36 -4 0 -5 -2 -3
-4z"/>
<path d="M16865 5489 c-4 -6 -5 -12 -2 -15 2 -3 7 2 10 11 7 17 1 20 -8 4z"/>
<path d="M15225 5470 c3 -5 8 -10 11 -10 2 0 4 5 4 10 0 6 -5 10 -11 10 -5 0
-7 -4 -4 -10z"/>
<path d="M13590 5441 c0 -5 6 -12 13 -14 9 -4 8 -8 -3 -16 -8 -5 -12 -12 -10
-15 3 -2 14 2 24 10 16 11 17 16 6 29 -14 17 -30 20 -30 6z"/>
<path d="M14055 5440 c-3 -5 3 -10 14 -10 12 0 21 5 21 10 0 6 -6 10 -14 10
-8 0 -18 -4 -21 -10z"/>
<path d="M15292 5425 c0 -16 2 -22 5 -12 2 9 2 23 0 30 -3 6 -5 -1 -5 -18z"/>
<path d="M16057 5328 c-25 -35 -52 -79 -62 -98 -10 -19 -24 -42 -31 -51 -13
-14 -12 -18 1 -29 12 -10 15 -9 15 6 0 19 56 122 105 197 41 61 20 42 -28 -25z"/>
<path d="M14570 5240 c0 -5 5 -10 10 -10 6 0 10 5 10 10 0 6 -4 10 -10 10 -5
0 -10 -4 -10 -10z"/>
<path d="M13630 5220 c0 -5 5 -10 11 -10 5 0 7 5 4 10 -3 6 -8 10 -11 10 -2 0
-4 -4 -4 -10z"/>
<path d="M14561 5160 c-15 -75 -60 -188 -125 -314 -26 -49 -45 -93 -44 -98 5
-15 95 141 123 212 29 74 69 234 63 252 -3 7 -10 -17 -17 -52z"/>
<path d="M13663 5187 c5 -15 37 -22 37 -9 0 5 -9 12 -21 15 -13 3 -19 1 -16
-6z"/>
<path d="M14260 5191 c0 -6 4 -13 10 -16 6 -3 7 1 4 9 -7 18 -14 21 -14 7z"/>
<path d="M16130 4967 c0 -2 15 -16 33 -33 l32 -29 -29 33 c-28 30 -36 37 -36
29z"/>
<path d="M13344 4250 c-79 -60 -172 -116 -264 -160 -47 -23 -101 -50 -120 -61
-19 -11 -52 -27 -72 -35 -21 -9 -38 -20 -38 -25 0 -5 -7 -9 -15 -9 -18 0 -65
-29 -65 -40 0 -4 12 -12 26 -19 23 -10 30 -9 50 10 21 20 27 21 49 9 13 -7 22
-17 19 -21 -15 -25 105 23 156 63 14 11 50 37 80 59 30 22 96 77 145 123 133
123 166 195 49 106z"/>
<path d="M16281 4223 c0 -4 4 -17 9 -28 8 -19 9 -19 9 2 1 12 -3 25 -9 28 -5
3 -10 3 -9 -2z"/>
<path d="M16351 3924 c0 -11 3 -14 6 -6 3 7 2 16 -1 19 -3 4 -6 -2 -5 -13z"/>
<path d="M12860 3553 c-8 -3 -25 -10 -38 -14 l-23 -9 23 -23 c37 -37 68 -53
147 -73 40 -10 76 -25 79 -32 9 -25 -19 -120 -50 -166 -49 -75 -57 -77 -248
-51 -91 13 -178 26 -194 30 -21 6 -27 5 -22 -4 4 -6 1 -11 -9 -11 -25 0 3 -45
78 -126 61 -65 67 -69 108 -69 64 0 143 43 222 122 105 105 150 228 121 339
-17 68 -52 94 -124 93 -30 0 -62 -3 -70 -6z"/>
<path d="M13435 3360 c-3 -5 -2 -10 4 -10 5 0 13 5 16 10 3 6 2 10 -4 10 -5 0
-13 -4 -16 -10z"/>
<path d="M15533 3123 c-21 -44 -14 -61 7 -19 22 45 23 46 13 46 -5 0 -14 -12
-20 -27z"/>
<path d="M16578 2785 c-3 -3 -22 -7 -44 -8 -33 -3 -40 -8 -42 -28 -5 -35 -46
-173 -76 -252 -23 -62 -25 -97 -7 -97 4 0 23 -29 42 -65 38 -73 39 -73 116
-24 27 17 91 56 143 86 98 58 123 77 114 86 -3 3 3 3 15 0 22 -6 29 11 9 21
-7 4 -4 5 8 2 12 -2 32 3 45 10 23 13 23 13 -16 14 -22 0 -50 -7 -61 -15 -12
-8 -24 -11 -28 -8 -3 3 -6 -8 -6 -25 0 -27 -4 -32 -24 -32 -49 0 -39 30 30 96
37 35 70 64 74 64 6 0 30 44 30 55 0 3 -7 5 -15 5 -11 0 -15 12 -15 49 0 43
-3 50 -22 54 -21 4 -21 4 3 6 14 0 30 -4 37 -11 8 -8 12 -8 12 -1 0 18 -30 24
-78 17 -30 -4 -40 -9 -31 -15 8 -5 11 -9 6 -9 -4 0 -15 5 -25 11 -18 11 -123
1 -182 -17 -24 -7 -24 -7 -7 10 9 10 17 19 17 22 0 6 -16 5 -22 -1z m-61 -47
c-3 -8 -6 -5 -6 6 -1 11 2 17 5 13 3 -3 4 -12 1 -19z m43 8 c0 -2 -7 -6 -15
-10 -8 -3 -15 -1 -15 4 0 6 7 10 15 10 8 0 15 -2 15 -4z m300 -71 c0 -8 -4
-15 -10 -15 -5 0 -10 7 -10 15 0 8 5 15 10 15 6 0 10 -7 10 -15z m-110 -25 c0
-5 -4 -10 -9 -10 -6 0 -13 5 -16 10 -3 6 1 10 9 10 9 0 16 -4 16 -10z m-60
-210 c-8 -5 -19 -10 -25 -10 -5 0 -3 5 5 10 8 5 20 10 25 10 6 0 3 -5 -5 -10z
m-10 -44 c0 -3 -4 -8 -10 -11 -5 -3 -10 -1 -10 4 0 6 5 11 10 11 6 0 10 -2 10
-4z"/>
<path d="M17018 2743 c7 -3 16 -2 19 1 4 3 -2 6 -13 5 -11 0 -14 -3 -6 -6z"/>
<path d="M16520 1888 c0 -32 -101 -186 -165 -255 -94 -102 -194 -155 -340
-183 -90 -17 -255 -4 -241 19 2 3 -7 7 -19 7 -20 2 -17 -4 23 -36 91 -72 178
-179 234 -289 18 -35 32 -48 66 -60 25 -9 52 -29 63 -46 20 -29 21 -29 15 -5
l-5 25 83 1 c67 1 92 6 133 27 33 16 55 22 64 16 20 -13 27 -11 25 7 -1 10 17
21 50 33 l51 18 31 -56 c18 -31 41 -67 53 -81 l21 -25 -20 35 c-11 19 -34 59
-51 88 -40 69 -41 95 -3 169 40 79 69 156 77 209 6 37 3 45 -30 84 -35 41 -36
46 -30 99 4 36 3 51 -3 42 -7 -9 -9 -1 -8 27 0 34 2 37 13 23 11 -14 12 -14
13 0 0 8 -22 40 -50 70 -33 36 -49 48 -50 37z m10 -218 c-6 -11 -17 -20 -26
-20 -28 0 -27 32 2 92 l29 61 3 -56 c2 -31 -2 -66 -8 -77z m73 -67 c8 -10 18
-38 22 -63 5 -37 2 -56 -20 -103 -25 -56 -53 -97 -66 -97 -3 0 -2 26 3 58 5
31 11 84 13 117 2 33 4 64 4 68 1 5 5 6 10 3 5 -4 7 3 4 14 -7 25 9 26 30 3z
m-139 -27 c20 -42 20 -60 2 -75 -11 -9 -17 -2 -31 34 -27 71 -2 106 29 41z
m186 -38 c0 -38 -5 -34 -13 10 -4 21 -3 31 3 27 6 -3 10 -20 10 -37z m-256
-104 c-10 -39 -21 -16 -28 56 l-6 65 20 -48 c12 -30 18 -58 14 -73z m-34 40
c0 -16 -16 -19 -25 -4 -8 14 -25 3 -25 -16 0 -9 5 -12 11 -8 7 4 10 1 7 -7 -3
-8 -15 -16 -27 -17 -13 -2 -21 0 -19 5 2 4 10 20 17 35 19 37 61 46 61 12z
m103 -88 c-10 -6 -20 -11 -23 -11 -3 0 -16 -7 -29 -14 -20 -11 -25 -11 -32 0
-5 8 -9 17 -9 20 0 14 52 40 69 34 13 -4 21 1 26 17 7 22 8 22 12 -6 3 -21 -1
-32 -14 -40z m-103 -35 c0 -5 -9 -7 -20 -4 -11 3 -20 7 -20 9 0 2 9 4 20 4 11
0 20 -4 20 -9z m107 -14 c13 5 15 1 11 -21 -5 -22 -2 -26 13 -21 32 10 21 -2
-35 -39 -65 -43 -179 -76 -263 -76 -73 0 -86 16 -15 19 63 2 89 10 71 22 -11
7 -11 9 3 9 9 0 20 -4 23 -10 8 -12 74 14 95 38 9 9 22 18 30 20 8 2 23 11 32
19 17 15 17 17 0 29 -15 12 -15 15 -2 24 11 7 16 6 18 -5 2 -8 10 -11 19 -8z
m-320 7 c-3 -3 -12 -4 -19 -1 -8 3 -5 6 6 6 11 1 17 -2 13 -5z m213 -42 c0 -5
-10 -17 -22 -28 -20 -18 -21 -18 -15 -1 4 10 7 23 7 28 0 5 7 9 15 9 8 0 15
-4 15 -8z m-262 -50 c-1 -4 4 -18 11 -30 7 -13 11 -26 8 -28 -6 -7 -34 29 -41
53 -6 18 -4 22 8 17 8 -3 15 -9 14 -12z m447 -71 c-6 -5 -25 10 -25 20 0 5 6
4 14 -3 8 -7 12 -15 11 -17z"/>
<path d="M16224 1708 l-19 -23 25 20 c14 11 27 21 29 22 2 2 0 3 -6 3 -5 0
-18 -10 -29 -22z"/>
<path d="M16166 1664 c-23 -23 -20 -30 4 -9 11 10 20 20 20 22 0 7 -9 2 -24
-13z"/>
<path d="M16115 1630 c-3 -6 1 -7 9 -4 18 7 21 14 7 14 -6 0 -13 -4 -16 -10z"/>
<path d="M15965 1529 c-44 -9 -124 -18 -179 -18 -55 -1 -96 -4 -92 -8 12 -12
227 -3 295 13 68 15 113 34 76 32 -11 0 -56 -9 -100 -19z"/>
<path d="M16183 959 l20 -48 -27 -36 c-35 -46 -78 -149 -70 -170 5 -12 -2 -15
-33 -15 -67 0 -112 -43 -113 -106 0 -71 71 -110 160 -87 l35 9 1 65 c1 35 0
53 -2 39 -3 -14 -7 -39 -9 -56 -7 -39 -48 -59 -100 -50 -50 10 -75 38 -75 84
0 57 36 87 103 87 l52 0 1 45 c0 25 9 62 19 83 22 48 82 109 123 126 18 7 32
17 32 21 0 10 -31 22 -38 15 -3 -3 0 -5 6 -5 21 0 13 -16 -15 -29 -24 -11 -25
-11 -13 4 11 14 11 16 -1 13 -8 -2 -18 -7 -22 -13 -4 -5 -5 2 -1 18 5 22 3 26
-10 21 -11 -4 -16 0 -16 13 0 11 -6 20 -13 20 -11 0 -9 -11 6 -48z"/>
<path d="M16677 965 c9 -19 18 -33 21 -31 4 5 -26 66 -33 66 -3 0 3 -16 12
-35z"/>
<path d="M15098 865 c-3 -3 -40 -14 -84 -26 -54 -14 -115 -21 -194 -22 -147
-3 -192 -22 -250 -107 -60 -88 -60 -102 -5 -139 25 -17 51 -31 58 -31 7 1 -1
8 -17 17 l-30 16 30 15 c16 8 23 17 17 19 -7 3 -20 -3 -29 -11 -19 -20 -31
-20 -31 -1 0 8 6 15 14 15 7 0 13 5 13 10 0 6 -5 10 -12 10 -6 0 -9 3 -5 6 3
4 20 2 36 -4 25 -9 31 -8 31 2 0 20 63 72 104 87 20 7 36 16 36 20 0 4 23 13
50 20 28 7 50 16 50 20 0 5 21 9 48 11 28 2 46 7 45 14 -1 7 14 15 35 19 56
10 112 29 112 37 0 9 -14 11 -22 3z m-141 -61 c-3 -3 -12 -4 -19 -1 -8 3 -5 6
6 6 11 1 17 -2 13 -5z m-118 -18 c-2 -2 -17 -6 -34 -10 -22 -5 -26 -4 -15 4
14 9 59 15 49 6z m-109 -40 c0 -3 -4 -8 -10 -11 -5 -3 -10 -1 -10 4 0 6 5 11
10 11 6 0 10 -2 10 -4z m-174 -111 c-6 -19 -14 -31 -19 -26 -8 8 11 61 23 61
4 0 2 -16 -4 -35z"/>
<path d="M16711 854 c0 -11 3 -14 6 -6 3 7 2 16 -1 19 -3 4 -6 -2 -5 -13z"/>
<path d="M14845 728 c-16 -6 -45 -22 -63 -35 -18 -14 -40 -22 -48 -19 -8 3
-13 2 -9 -3 6 -11 -52 -71 -61 -62 -3 3 3 -13 14 -35 21 -41 39 -55 70 -53 10
0 7 4 -9 10 -14 5 -31 21 -37 34 -10 21 -8 28 16 54 15 16 49 43 76 60 45 28
58 31 128 31 43 0 78 4 78 9 0 21 -102 27 -155 9z"/>
<path d="M16268 625 c-1 -30 0 -55 5 -55 4 0 7 25 7 55 0 71 -7 71 -12 0z"/>
<path d="M16536 594 c6 -79 5 -82 -21 -103 -32 -24 -21 -29 13 -5 18 12 22 25
21 62 0 26 -4 65 -9 87 -7 30 -8 19 -4 -41z"/>
<path d="M16413 600 c0 -36 2 -50 4 -32 2 17 2 47 0 65 -2 17 -4 3 -4 -33z"/>
<path d="M16645 635 c4 -16 11 -34 16 -39 15 -16 10 16 -7 44 l-15 25 6 -30z"/>
<path d="M14630 586 c0 -2 8 -10 18 -17 15 -13 16 -12 3 4 -13 16 -21 21 -21
13z"/>
<path d="M16645 562 c-8 -23 -44 -38 -70 -28 -9 3 -13 2 -10 -4 9 -15 71 -12
85 5 6 8 10 22 7 32 -4 16 -6 15 -12 -5z"/>
<path d="M14876 561 c-3 -5 -22 -12 -41 -15 -20 -4 -33 -11 -30 -17 4 -5 -2
-9 -11 -9 -10 0 -15 -3 -11 -6 3 -3 30 -1 59 7 29 7 47 14 40 17 -10 3 -10 7
-1 18 6 8 9 14 6 14 -3 0 -8 -4 -11 -9z m-19 -27 c-3 -3 -12 -4 -19 -1 -8 3
-5 6 6 6 11 1 17 -2 13 -5z"/>
<path d="M16281 544 c0 -11 3 -14 6 -6 3 7 2 16 -1 19 -3 4 -6 -2 -5 -13z"/>
<path d="M14655 540 c-19 -8 -19 -9 3 -9 12 -1 22 4 22 9 0 6 -1 10 -2 9 -2 0
-12 -4 -23 -9z"/>
<path d="M16260 487 l-25 -32 28 18 c28 18 29 18 50 0 18 -16 17 -14 -3 15
-13 17 -24 32 -24 31 -1 0 -12 -14 -26 -32z"/>
<path d="M16429 490 c13 -11 28 -20 33 -20 6 0 -1 9 -15 20 -33 26 -49 26 -18
0z"/>
<path d="M16170 486 c0 -2 7 -7 16 -10 8 -3 12 -2 9 4 -6 10 -25 14 -25 6z"/>
<path d="M16380 469 c-22 -18 -22 -19 -3 -10 12 6 25 16 28 21 9 15 3 12 -25
-11z"/>
<path d="M4998 3 c2751 -2 7253 -2 10005 0 2751 1 500 2 -5003 2 -5503 0
-7754 -1 -5002 -2z"/>
</g>
</svg>
